<svg width="10" height="7" viewBox="0 0 10 7" fill="none" xmlns="http://www.w3.org/2000/svg">
<path fill-rule="evenodd" clip-rule="evenodd" d="M8.97784 1.13047C9.09501 1.24767 9.16083 1.40661 9.16083 1.57234C9.16083 1.73807 9.09501 1.89701 8.97784 2.01422L4.29325 6.6988C4.23135 6.76072 4.15785 6.80984 4.07695 6.84335C3.99606 6.87687 3.90936 6.89411 3.82179 6.89411C3.73423 6.89411 3.64753 6.87687 3.56664 6.84335C3.48574 6.80984 3.41224 6.76072 3.35034 6.6988L1.02284 4.37172C0.963142 4.31406 0.915529 4.2451 0.882773 4.16884C0.850017 4.09259 0.832776 4.01058 0.832055 3.92759C0.831334 3.8446 0.847147 3.7623 0.878573 3.68549C0.909998 3.60868 0.956407 3.5389 1.01509 3.48022C1.07377 3.42154 1.14355 3.37513 1.22037 3.3437C1.29718 3.31228 1.37948 3.29646 1.46246 3.29718C1.54545 3.2979 1.62746 3.31515 1.70371 3.3479C1.77997 3.38066 1.84893 3.42827 1.90659 3.48797L3.82159 5.40297L8.09367 1.13047C8.15171 1.07239 8.22063 1.02631 8.29648 0.994879C8.37234 0.963445 8.45364 0.947266 8.53575 0.947266C8.61786 0.947266 8.69917 0.963445 8.77502 0.994879C8.85088 1.02631 8.91979 1.07239 8.97784 1.13047Z" fill="#DA5413"/>
</svg>
