<svg width="40" height="21" viewBox="0 0 40 21" fill="none" xmlns="http://www.w3.org/2000/svg">
<path d="M14.2643 10.5099C14.2647 10.3255 14.3751 10.1568 14.5494 10.076C18.1079 8.42289 20.6688 5.43918 20.6945 5.40895C20.8711 5.20179 21.1896 5.17031 21.4064 5.33913C21.6239 5.50731 21.6555 5.81237 21.4802 6.01953C21.3794 6.13855 19.1433 8.74207 15.8495 10.5158C19.1382 12.3409 21.3281 15.1555 21.4269 15.2841C21.593 15.4998 21.5443 15.8014 21.3193 15.9601C21.0942 16.1181 20.7773 16.0728 20.6119 15.8577C20.5871 15.8254 18.0797 12.6084 14.5472 10.9451C14.3733 10.8628 14.2638 10.6942 14.2643 10.5099Z" fill="#5C0000"/>
<path d="M0.0516386 10.4744C0.0516468 10.4712 0.0516552 10.4679 0.051665 10.464C0.0577402 10.1977 0.288969 9.98628 0.56823 9.99214C0.655247 9.99365 9.38278 10.0614 17.2081 1.51479C17.3116 1.40158 17.4649 1.34073 17.6213 1.3508C17.7785 1.36022 17.922 1.43923 18.0093 1.56388C18.0685 1.64913 24.0387 10.0515 31.5244 10.0704C31.8037 10.0711 32.0298 10.2883 32.0291 10.5553C32.0285 10.8222 31.8013 11.0382 31.522 11.0375C24.0423 11.0186 18.0278 19.7239 17.9676 19.8121C17.8809 19.9395 17.7364 20.0203 17.5778 20.0309C17.4193 20.0415 17.2649 19.9798 17.1607 19.8648C9.37027 11.2696 0.63188 10.9613 0.54419 10.9592C0.270328 10.9527 0.0509698 10.7368 0.0516386 10.4744ZM17.5439 2.60786C12.5393 7.86968 7.31648 9.81962 4.00112 10.5398C7.30577 11.3734 12.517 13.4748 17.4954 18.7638C18.7246 17.1177 22.8077 12.1321 28.2117 10.5539C22.8231 9.01039 18.7683 4.20149 17.5439 2.60786Z" fill="#5C0000"/>
<path d="M30.5791 10.5494C30.5798 10.2825 30.6222 10.066 30.6738 10.0661L39.8562 10.0894C39.9078 10.0895 39.9492 10.3062 39.9485 10.5731C39.9478 10.84 39.9054 11.0566 39.8537 11.0564L30.6714 11.0332C30.6198 11.0331 30.5784 10.8163 30.5791 10.5494Z" fill="#5C0000"/>
<path d="M29.4884 4.92258C29.4911 3.88136 29.7999 2.83836 30.5178 1.98592C31.4712 0.854908 33.0929 0.341925 34.4612 0.737378C35.9671 1.17251 36.9658 2.67204 36.6869 4.08908C36.5161 4.95838 35.8923 5.64795 35.0992 5.84452C34.6186 5.96387 34.0765 5.86708 33.6495 5.58554C33.2609 5.3299 33.0211 4.96179 32.9729 4.54969C32.9365 4.28269 33.1414 4.04598 33.4195 4.01573C33.6975 3.98613 33.9472 4.17762 33.9783 4.44268C33.9987 4.61746 34.1401 4.73452 34.2229 4.78888C34.4088 4.9112 34.6468 4.95757 34.8446 4.90843C35.2476 4.80887 35.5967 4.39779 35.6924 3.90933C35.8762 2.98139 35.1773 1.95387 34.1682 1.66248C33.184 1.3776 32.0072 1.76011 31.3056 2.59132C30.0166 4.12314 30.409 6.58763 31.5834 7.93098C32.7195 9.23103 34.6427 10.0115 36.7467 10.031C36.7898 10.0312 36.833 10.0313 36.8762 10.0314C37.1541 10.034 37.3782 10.2506 37.3775 10.5162C37.3768 10.7818 37.1516 10.9972 36.8737 10.9984C36.8312 10.9983 36.7874 10.9982 36.7449 10.9981C34.6408 11.0076 32.7136 11.779 31.571 13.072C30.3897 14.41 29.9855 16.8744 31.2659 18.4101C31.9633 19.2455 33.1381 19.6341 34.1237 19.3542C35.1336 19.0679 35.8378 18.042 35.6594 17.1158C35.5655 16.6262 35.2192 16.2139 34.8167 16.1117C34.6199 16.0615 34.3809 16.1061 34.1945 16.2281C34.112 16.282 33.9694 16.3984 33.948 16.5724C33.9156 16.8373 33.6642 17.0275 33.387 16.9965C33.1092 16.9655 32.9094 16.7309 32.9432 16.4602C32.9935 16.0477 33.2352 15.6815 33.6244 15.4278C34.0535 15.1484 34.5961 15.055 35.0754 15.1762C35.8676 15.3774 36.4877 16.0702 36.6542 16.9403C36.9231 18.3568 35.9195 19.8532 34.4114 20.2801C33.0411 20.6686 31.422 20.1468 30.4745 19.011C28.8322 17.043 29.3626 14.0703 30.7975 12.446C31.562 11.5808 32.6167 10.9167 33.8293 10.5052C32.6188 10.0876 31.5675 9.41833 30.8074 8.54926C30.0003 7.62978 29.485 6.27843 29.4884 4.92258Z" fill="#5C0000"/>
</svg>
