<svg width="29" height="46" viewBox="0 0 29 46" fill="none" xmlns="http://www.w3.org/2000/svg">
<mask id="path-1-inside-1_1182_2272" fill="white">
<path d="M12.3955 0.877143C12.8447 0.489745 13.4248 0.223803 14.0066 0.138484C15.6973 -0.109296 17.2725 0.867719 17.5555 2.33973L17.6321 2.73824L17.9947 2.77525C19.552 2.93422 20.7713 4.38176 20.5128 5.76496C20.2856 6.98114 18.9872 7.98612 17.6318 7.99492L17.3964 7.99642V9.58795V11.1795H18.5868H19.7771L19.8236 10.883C19.9792 9.89147 20.5724 9.1598 21.5609 8.74038L22.0639 8.52693H22.8619H23.6599L24.1504 8.72721C25.0549 9.09645 25.7049 9.82431 25.8754 10.6586L25.953 11.0382L26.3756 11.0713C27.2999 11.1435 28.2591 11.766 28.7013 12.5805L28.9204 12.984L28.9602 13.4392L29 13.8945L28.8798 14.2986C28.7246 14.82 28.4708 15.1953 28.0255 15.5617C27.5823 15.9263 27.0381 16.1607 26.4246 16.2513L25.9544 16.3207L25.873 16.6775C25.6241 17.7678 24.6135 18.6177 23.3425 18.8056L22.8382 18.8801L22.3949 18.8091C21.037 18.5914 20.0719 17.7437 19.8535 16.5769L19.7661 16.1101H18.5813H17.3964V22.3089V28.5078L20.2953 30.3669C22.2705 31.6336 23.1741 32.2487 23.1313 32.2973C23.0967 32.3366 22.3265 33.2308 21.4198 34.2846L19.7712 36.2005L18.6223 35.4549C17.9903 35.0448 17.456 34.7092 17.4349 34.7092C17.4137 34.7092 17.3964 35.2669 17.3964 35.9486V37.188L17.849 37.2287C19.158 37.3463 20.2989 38.2922 20.5128 39.4372C20.7713 40.8204 19.552 42.268 17.9947 42.4269L17.6321 42.4639L17.5555 42.8624C17.4435 43.4449 17.1733 43.8992 16.6929 44.3123C15.4773 45.3578 13.5994 45.3633 12.3955 44.325C11.9204 43.9153 11.6406 43.4484 11.5284 42.8778L11.4472 42.4647L11.0735 42.4265C10.8679 42.4055 10.4959 42.3019 10.2469 42.1962C8.75683 41.5639 8.12461 40.0263 8.81657 38.7173C9.25508 37.8879 10.4264 37.2139 11.4407 37.2072L11.676 37.2057L11.675 34.1007L11.674 30.9956L8.84502 29.1859C7.28914 28.1905 5.99046 27.3479 5.9591 27.3135C5.90385 27.2527 9.19173 23.3628 9.30563 23.3542C9.33611 23.3519 9.86029 23.673 10.4705 24.0678C11.0806 24.4626 11.6015 24.7855 11.6279 24.7855C11.6543 24.7855 11.676 22.8336 11.676 20.4478V16.1101H10.445C9.76797 16.1101 9.21381 16.1312 9.21345 16.1569C9.21316 16.1827 9.17869 16.3857 9.13677 16.6082C8.92265 17.746 7.94735 18.5939 6.60515 18.8091L6.16185 18.8801L5.64933 18.8043C4.38721 18.6178 3.37339 17.7702 3.13118 16.6991L3.04559 16.3207L2.57543 16.2513C1.3611 16.072 0.426788 15.329 0.120202 14.2986L0 13.8945L0.0397542 13.4392L0.0795791 12.984L0.298694 12.5805C0.740905 11.766 1.70006 11.1435 2.62438 11.0713L3.04704 11.0382L3.12459 10.6586C3.29591 9.82019 3.88787 9.14232 4.78084 8.76198L5.33253 8.52693H6.13433H6.93614L7.42302 8.73352C7.69087 8.84717 8.07378 9.07766 8.27392 9.24574C8.64821 9.55999 9.03916 10.1683 9.10541 10.5398C9.12532 10.6513 9.15936 10.8409 9.18108 10.961L9.22062 11.1795H10.4483H11.676V9.59682V8.01421L11.2258 7.97364C10.6249 7.91953 9.95768 7.6416 9.46565 7.24047C7.94959 6.00457 8.34633 3.81243 10.2308 3.01279C10.4887 2.90338 10.8679 2.79666 11.0735 2.77569L11.4472 2.73749L11.5284 2.32432C11.6406 1.7538 11.9204 1.28689 12.3955 0.877143Z"/>
</mask>
<path d="M12.3955 0.877143C12.8447 0.489745 13.4248 0.223803 14.0066 0.138484C15.6973 -0.109296 17.2725 0.867719 17.5555 2.33973L17.6321 2.73824L17.9947 2.77525C19.552 2.93422 20.7713 4.38176 20.5128 5.76496C20.2856 6.98114 18.9872 7.98612 17.6318 7.99492L17.3964 7.99642V9.58795V11.1795H18.5868H19.7771L19.8236 10.883C19.9792 9.89147 20.5724 9.1598 21.5609 8.74038L22.0639 8.52693H22.8619H23.6599L24.1504 8.72721C25.0549 9.09645 25.7049 9.82431 25.8754 10.6586L25.953 11.0382L26.3756 11.0713C27.2999 11.1435 28.2591 11.766 28.7013 12.5805L28.9204 12.984L28.9602 13.4392L29 13.8945L28.8798 14.2986C28.7246 14.82 28.4708 15.1953 28.0255 15.5617C27.5823 15.9263 27.0381 16.1607 26.4246 16.2513L25.9544 16.3207L25.873 16.6775C25.6241 17.7678 24.6135 18.6177 23.3425 18.8056L22.8382 18.8801L22.3949 18.8091C21.037 18.5914 20.0719 17.7437 19.8535 16.5769L19.7661 16.1101H18.5813H17.3964V22.3089V28.5078L20.2953 30.3669C22.2705 31.6336 23.1741 32.2487 23.1313 32.2973C23.0967 32.3366 22.3265 33.2308 21.4198 34.2846L19.7712 36.2005L18.6223 35.4549C17.9903 35.0448 17.456 34.7092 17.4349 34.7092C17.4137 34.7092 17.3964 35.2669 17.3964 35.9486V37.188L17.849 37.2287C19.158 37.3463 20.2989 38.2922 20.5128 39.4372C20.7713 40.8204 19.552 42.268 17.9947 42.4269L17.6321 42.4639L17.5555 42.8624C17.4435 43.4449 17.1733 43.8992 16.6929 44.3123C15.4773 45.3578 13.5994 45.3633 12.3955 44.325C11.9204 43.9153 11.6406 43.4484 11.5284 42.8778L11.4472 42.4647L11.0735 42.4265C10.8679 42.4055 10.4959 42.3019 10.2469 42.1962C8.75683 41.5639 8.12461 40.0263 8.81657 38.7173C9.25508 37.8879 10.4264 37.2139 11.4407 37.2072L11.676 37.2057L11.675 34.1007L11.674 30.9956L8.84502 29.1859C7.28914 28.1905 5.99046 27.3479 5.9591 27.3135C5.90385 27.2527 9.19173 23.3628 9.30563 23.3542C9.33611 23.3519 9.86029 23.673 10.4705 24.0678C11.0806 24.4626 11.6015 24.7855 11.6279 24.7855C11.6543 24.7855 11.676 22.8336 11.676 20.4478V16.1101H10.445C9.76797 16.1101 9.21381 16.1312 9.21345 16.1569C9.21316 16.1827 9.17869 16.3857 9.13677 16.6082C8.92265 17.746 7.94735 18.5939 6.60515 18.8091L6.16185 18.8801L5.64933 18.8043C4.38721 18.6178 3.37339 17.7702 3.13118 16.6991L3.04559 16.3207L2.57543 16.2513C1.3611 16.072 0.426788 15.329 0.120202 14.2986L0 13.8945L0.0397542 13.4392L0.0795791 12.984L0.298694 12.5805C0.740905 11.766 1.70006 11.1435 2.62438 11.0713L3.04704 11.0382L3.12459 10.6586C3.29591 9.82019 3.88787 9.14232 4.78084 8.76198L5.33253 8.52693H6.13433H6.93614L7.42302 8.73352C7.69087 8.84717 8.07378 9.07766 8.27392 9.24574C8.64821 9.55999 9.03916 10.1683 9.10541 10.5398C9.12532 10.6513 9.15936 10.8409 9.18108 10.961L9.22062 11.1795H10.4483H11.676V9.59682V8.01421L11.2258 7.97364C10.6249 7.91953 9.95768 7.6416 9.46565 7.24047C7.94959 6.00457 8.34633 3.81243 10.2308 3.01279C10.4887 2.90338 10.8679 2.79666 11.0735 2.77569L11.4472 2.73749L11.5284 2.32432C11.6406 1.7538 11.9204 1.28689 12.3955 0.877143Z" fill="#5C0000" stroke="#8B2C2C" stroke-width="2" mask="url(#path-1-inside-1_1182_2272)"/>
</svg>
