<svg width="40" height="50" viewBox="0 0 40 50" fill="none" xmlns="http://www.w3.org/2000/svg">
<path d="M39.6639 16.3127C38.5219 14.6871 37.2033 13.8348 35.7447 13.7798C35.2459 13.7607 34.7818 13.84 34.3597 13.975C34.332 13.2917 34.0608 12.8285 33.8734 12.5876C33.3354 11.8963 32.4281 11.5692 31.6149 11.7744C30.9095 11.952 30.4217 12.5021 30.3413 13.21C30.2332 14.1623 30.639 14.639 30.9988 14.8709C31.0641 14.9128 31.1309 14.9488 31.1988 14.9796C31.0685 15.0575 30.9298 15.1291 30.7911 15.1932C30.366 14.82 29.7996 14.6012 29.1979 14.6012H22.2389V10.5549C22.2389 9.919 21.9489 9.33432 21.4677 8.92827C21.5696 8.70396 21.6928 8.46753 21.8356 8.25741C21.8681 8.3211 21.9064 8.3841 21.9514 8.44503C22.1986 8.78219 22.7071 9.16332 23.7217 9.0619C24.4763 8.98678 25.0625 8.52881 25.2518 7.86694C25.4702 7.10434 25.1219 6.25277 24.3851 5.74807C24.1283 5.57221 23.635 5.31779 22.9063 5.29182C23.0498 4.89581 23.1343 4.45963 23.114 3.99231C23.0554 2.62392 22.147 1.38674 20.4143 0.31536L19.9044 0L19.3945 0.31536C17.6619 1.38674 16.7535 2.62392 16.6948 3.99231C16.6749 4.45963 16.759 4.89581 16.9026 5.29182C16.1742 5.31779 15.6806 5.57221 15.4238 5.74807C14.6869 6.25277 14.3386 7.10399 14.5571 7.86694C14.7463 8.52881 15.3326 8.98643 16.0871 9.0619C17.1018 9.16298 17.6102 8.78254 17.8574 8.44503C17.9021 8.38376 17.9404 8.3211 17.9733 8.25741C18.1161 8.46788 18.2393 8.70396 18.3411 8.92827C17.86 9.33432 17.57 9.919 17.57 10.5549V14.6012H10.6106C10.0384 14.6012 9.5019 14.7947 9.08608 15.1333C8.99015 15.0855 8.89459 15.0339 8.80271 14.9789C8.87023 14.9484 8.93665 14.9128 9.00122 14.8709C9.36096 14.639 9.76681 14.1623 9.65871 13.21C9.57827 12.5021 9.09051 11.952 8.38505 11.7744C7.57186 11.5695 6.66458 11.8963 6.12663 12.5876C5.93919 12.8285 5.66801 13.2913 5.64033 13.975C5.21824 13.8403 4.75372 13.7614 4.25525 13.7798C2.79674 13.8348 1.47806 14.6871 0.336125 16.3127L0 16.7911L0.336125 17.2695C1.47806 18.895 2.79674 19.7473 4.25525 19.8023C4.75409 19.8214 5.21824 19.7421 5.64033 19.6071C5.66801 20.2904 5.93919 20.7536 6.12663 20.9945C6.66458 21.6858 7.57186 22.0126 8.38505 21.8077C9.09051 21.6301 9.57827 21.08 9.65871 20.3721C9.76681 19.4198 9.36096 18.9432 9.00122 18.7112C8.93665 18.6693 8.87023 18.6337 8.80271 18.6032C8.89459 18.5482 8.99015 18.4966 9.08608 18.4488C9.5019 18.7874 10.038 18.9809 10.6106 18.9809H17.5696V40.2146C17.5696 40.7155 17.7545 41.1939 18.0784 41.5757C18.0449 41.6315 18.0091 41.6869 17.9722 41.7412C17.9397 41.6779 17.9017 41.6159 17.8574 41.5553C17.6102 41.2178 17.1022 40.8384 16.0871 40.9385C15.3326 41.0139 14.7463 41.4715 14.5571 42.1334C14.3386 42.896 14.6869 43.7476 15.4238 44.2519C15.6806 44.4278 16.1739 44.6826 16.9026 44.7082C16.759 45.1042 16.6745 45.5404 16.6948 46.0077C16.7535 47.3761 17.6619 48.6133 19.3945 49.6846L19.9044 50L20.4143 49.6846C22.147 48.6129 23.0554 47.3761 23.114 46.0077C23.134 45.5404 23.0498 45.1042 22.9063 44.7082C23.6347 44.6822 24.1283 44.4278 24.3851 44.2519C25.1219 43.7472 25.4702 42.896 25.2518 42.1334C25.0625 41.4715 24.4763 41.0136 23.7217 40.9385C22.7063 40.8377 22.1986 41.2178 21.9514 41.5553C21.9072 41.6159 21.8688 41.6779 21.8367 41.7412C21.7994 41.6869 21.764 41.6315 21.7301 41.5757C22.054 41.1939 22.2389 40.7155 22.2389 40.2146V18.9809H29.1979C29.8 18.9809 30.3664 18.7621 30.7911 18.389C30.9298 18.4533 31.0685 18.5247 31.1988 18.6025C31.1309 18.633 31.0641 18.669 30.9988 18.7112C30.6394 18.9432 30.2332 19.4198 30.3413 20.3721C30.4217 21.08 30.9095 21.6301 31.6149 21.8077C32.4281 22.0126 33.3354 21.6858 33.8734 20.9945C34.0608 20.7536 34.332 20.2908 34.3597 19.6071C34.7818 19.7418 35.2459 19.8207 35.7447 19.8023C37.2033 19.7473 38.5219 18.895 39.6639 17.2695L40 16.7911L39.6639 16.3127ZM32.6528 17.4384C34.9696 20.8159 31.4412 21.8523 31.263 20.2807C31.0847 18.7092 32.831 19.5451 32.831 19.5451C32.886 18.4312 31.6766 17.7364 30.4848 17.3231C30.2657 17.7866 29.7705 18.1124 29.1979 18.1124H21.312V40.2157C21.312 40.7079 21.0206 41.1389 20.5922 41.366C21.0431 42.3809 21.7552 43.3225 22.8392 43.2754C22.8392 43.2754 21.9481 41.637 23.6232 41.8042C25.2983 41.9714 24.1936 45.2818 20.5937 43.1082C20.5937 43.1082 24.6087 46.051 19.9041 48.9601C15.1994 46.051 19.2145 43.1082 19.2145 43.1082C15.6145 45.2818 14.5098 41.9714 16.1849 41.8042C17.86 41.637 16.969 43.2754 16.969 43.2754C18.053 43.3221 18.7651 42.3809 19.216 41.366C18.7876 41.1389 18.4961 40.7079 18.4961 40.2157V18.1124H10.6106C10.062 18.1124 9.58565 17.8133 9.35358 17.3813C8.2168 17.8005 7.11692 18.4817 7.16932 19.5455C7.16932 19.5455 8.91562 18.7095 8.73741 20.2811C8.5592 21.8527 5.03081 20.8163 7.34752 17.4387C7.34752 17.4387 4.21097 21.2057 1.11021 16.7914C4.21097 12.3775 7.34752 16.1444 7.34752 16.1444C5.03081 12.7669 8.5592 11.7305 8.73741 13.3021C8.91562 14.8737 7.16932 14.0377 7.16932 14.0377C7.11692 15.1011 8.2168 15.7823 9.35358 16.2019C9.58565 15.7695 10.0624 15.4708 10.6106 15.4708H18.4965V10.5552C18.4965 9.96954 18.9086 9.47037 19.4739 9.29867C19.0566 8.07671 18.2887 6.66955 16.969 6.72667C16.969 6.72667 17.86 8.36507 16.1849 8.19787C14.5098 8.03067 15.6145 4.7203 19.2145 6.89387C19.2145 6.89387 15.1994 3.95113 19.9041 1.04196C24.6087 3.95113 20.5937 6.89387 20.5937 6.89387C24.1936 4.7203 25.2983 8.03067 23.6232 8.19787C21.9481 8.36507 22.8392 6.72667 22.8392 6.72667C21.5198 6.66955 20.7516 8.07671 20.3343 9.29867C20.8995 9.47037 21.3117 9.96954 21.3117 10.5552V15.4708H29.1975C29.7705 15.4708 30.2653 15.7965 30.4844 16.26C31.6762 15.8467 32.8857 15.152 32.8307 14.038C32.8307 14.038 31.0844 14.874 31.2626 13.3024C31.4408 11.7308 34.9692 12.7672 32.6525 16.1448C32.6525 16.1448 35.789 12.3778 38.8898 16.7917C35.7894 21.2053 32.6528 17.4384 32.6528 17.4384Z" fill="#5C0000"/>
<path d="M39.0686 16.6811C38.0267 15.1981 36.8593 14.4463 35.5989 14.4463C34.7189 14.4463 33.9618 14.8142 33.4143 15.1947C33.8257 14.1714 33.6183 13.505 33.4172 13.1596C33.1431 12.6884 32.628 12.3838 32.1045 12.3838C31.5259 12.3838 31.112 12.7359 31.0503 13.2811C31.0031 13.6965 31.0776 14.0098 31.2713 14.2116C31.4296 14.3767 31.6551 14.4605 31.9418 14.4605C32.1738 14.4605 32.4114 14.4037 32.5952 14.3452C32.434 15.1441 31.4721 15.6793 30.5858 16.0089C30.2943 15.5547 29.7689 15.2701 29.1974 15.2701H21.5259V10.5554C21.5259 9.96205 21.1618 9.43277 20.6009 9.18249C20.9607 8.198 21.5658 7.11277 22.5107 6.9473C22.4004 7.24916 22.3 7.70298 22.517 8.0353C22.7096 8.33058 23.0874 8.45347 23.6464 8.39773C24.2492 8.3375 24.633 7.91483 24.6009 7.34539C24.5629 6.6721 23.9157 5.95658 22.7911 5.95623C22.421 5.95623 22.0251 6.03066 21.6075 6.17882C22.031 5.64261 22.4395 4.89213 22.4022 4.02014C22.3531 2.87918 21.5525 1.82095 20.0224 0.87454C19.9508 0.830231 19.8582 0.830231 19.787 0.87454C18.2569 1.82061 17.4559 2.87918 17.4072 4.02014C17.3696 4.89213 17.7784 5.64261 18.2019 6.17882C17.7843 6.03101 17.3884 5.95623 17.0183 5.95623C15.8937 5.95623 15.2466 6.67176 15.2086 7.34505C15.1765 7.91449 15.5598 8.33715 16.1631 8.39739C16.7209 8.45312 17.0999 8.33023 17.2925 8.03495C17.5094 7.70298 17.4087 7.24881 17.2987 6.9473C18.2436 7.11312 18.8484 8.198 19.2081 9.18249C18.6473 9.43277 18.2831 9.96205 18.2831 10.5554V15.2701H10.6105C10.0623 15.2701 9.56158 15.5266 9.26198 15.9507C8.14919 15.5125 7.52601 14.9735 7.40351 14.3448C7.58762 14.4037 7.82597 14.4608 8.05842 14.4608C8.34511 14.4608 8.57091 14.377 8.7292 14.2119C8.9229 14.0097 8.99706 13.6968 8.9502 13.2814C8.88822 12.7366 8.47461 12.3842 7.89608 12.3842C7.37289 12.3842 6.85708 12.6884 6.58331 13.1596C6.38222 13.505 6.17487 14.1718 6.58626 15.195C6.03872 14.8146 5.28197 14.4466 4.40163 14.4466C3.14125 14.4466 1.97386 15.1985 0.931905 16.6814C0.884678 16.7486 0.884678 16.8355 0.931905 16.9023C1.97386 18.3853 3.14125 19.1371 4.40163 19.1371C5.28161 19.1371 6.03872 18.7692 6.58626 18.3887C6.17487 19.412 6.38222 20.0784 6.58331 20.4238C6.85745 20.895 7.37252 21.1996 7.89608 21.1996C8.47461 21.1996 8.88859 20.8475 8.9502 20.3023C8.99743 19.8869 8.9229 19.5737 8.7292 19.3715C8.57091 19.2064 8.34547 19.1226 8.05879 19.1226C7.82634 19.1226 7.58799 19.1797 7.40388 19.2386C7.52638 18.6099 8.14956 18.071 9.26235 17.6327C9.56195 18.0564 10.0626 18.3133 10.6109 18.3133H18.2827V40.2158C18.2827 40.7015 18.5336 41.1567 18.9484 41.4423C18.492 42.4032 17.9378 42.9443 17.298 43.055C17.4083 42.7535 17.5087 42.299 17.2917 41.967C17.0991 41.6721 16.7272 41.5478 16.1623 41.6046C15.5594 41.6648 15.1757 42.0875 15.2078 42.6569C15.2458 43.3302 15.893 44.0458 17.0176 44.0458C17.3876 44.0458 17.7835 43.971 18.2012 43.8232C17.778 44.3597 17.3692 45.1102 17.4065 45.9822C17.4552 47.1232 18.2562 48.1814 19.7863 49.1278C19.8221 49.1496 19.863 49.161 19.904 49.161C19.9449 49.161 19.9859 49.15 20.0217 49.1278C21.5518 48.1814 22.3528 47.1232 22.4015 45.9822C22.4387 45.1102 22.0303 44.3597 21.6067 43.8235C22.0248 43.9713 22.4203 44.0461 22.7904 44.0461C23.915 44.0461 24.5621 43.3306 24.6001 42.6573C24.6322 42.0882 24.2489 41.6652 23.6456 41.6049C23.0819 41.5485 22.7085 41.6721 22.5162 41.967C22.2993 42.2994 22.4 42.7535 22.5103 43.0554C21.8702 42.9446 21.3164 42.4035 20.86 41.4426C21.2747 41.1574 21.5256 40.7021 21.5256 40.2161V18.3136H29.1974C29.7689 18.3136 30.294 18.0291 30.5858 17.5749C31.4721 17.9044 32.434 18.4396 32.5952 19.2386C32.4111 19.1797 32.1735 19.1229 31.9418 19.1229C31.6551 19.1229 31.4293 19.2067 31.271 19.3718C31.0773 19.574 31.0027 19.8869 31.05 20.3027C31.112 20.8475 31.5256 21.1999 32.1041 21.1999C32.6277 21.1999 33.1431 20.8953 33.4169 20.4242C33.6179 20.0787 33.8253 19.4123 33.4139 18.3891C33.9615 18.7695 34.7186 19.1375 35.5985 19.1375C36.8593 19.1375 38.0267 18.3856 39.0683 16.9026C39.1159 16.8348 39.1159 16.7479 39.0686 16.6811ZM23.2837 6.939C23.3213 6.86977 23.3398 6.7943 23.3383 6.71918C23.7146 6.86803 23.8762 7.16227 23.8884 7.38036C23.9002 7.59152 23.7932 7.7099 23.5707 7.73206C23.5084 7.73829 23.4501 7.74141 23.3973 7.74141C23.2036 7.74141 23.135 7.70125 23.1246 7.68567C23.0505 7.57282 23.1516 7.18443 23.2837 6.939ZM16.6837 7.68532C16.6737 7.7009 16.6047 7.74106 16.411 7.74106C16.3582 7.74106 16.2999 7.73794 16.2376 7.73171C16.0144 7.70956 15.9077 7.59117 15.9195 7.37966C15.9317 7.16158 16.0933 6.86734 16.47 6.71849C16.4689 6.79326 16.4866 6.86838 16.5239 6.93762C16.6567 7.18443 16.7578 7.57247 16.6837 7.68532ZM16.5246 43.0627C16.487 43.1319 16.4686 43.2073 16.47 43.2825C16.0937 43.1336 15.9325 42.8394 15.9199 42.6216C15.9081 42.4105 16.0147 42.2921 16.2383 42.2696C16.2999 42.2634 16.3582 42.2602 16.4114 42.2602C16.6051 42.2602 16.6737 42.3007 16.684 42.316C16.7575 42.4288 16.6567 42.8169 16.5246 43.0627ZM23.1246 42.316C23.135 42.3004 23.2036 42.2602 23.3973 42.2602C23.4504 42.2602 23.5087 42.2634 23.5707 42.2696C23.7936 42.2917 23.9009 42.4101 23.8888 42.6216C23.8766 42.8397 23.715 43.134 23.3383 43.2825C23.3394 43.2077 23.3217 43.1326 23.2844 43.0633C23.1516 42.8172 23.0505 42.4288 23.1246 42.316ZM31.9418 13.7917C31.8724 13.7917 31.817 13.7809 31.8012 13.7643C31.7739 13.7356 31.7296 13.6124 31.7591 13.3517C31.7676 13.2776 31.7931 13.0526 32.1045 13.0526C32.3067 13.0526 32.6081 13.1644 32.7915 13.4798C32.8073 13.5068 32.8228 13.5369 32.838 13.5698C32.7586 13.5694 32.6775 13.5864 32.6055 13.6203C32.5041 13.6677 32.1871 13.7917 31.9418 13.7917ZM19.0137 7.3222C19.2225 7.40874 19.487 7.34124 19.6206 7.16504C19.7756 6.96115 19.7324 6.68007 19.5225 6.52533C19.5077 6.5146 18.0577 5.41864 18.1186 4.04368C18.1562 3.19696 18.7565 2.37828 19.904 1.6091C21.0511 2.37828 21.6517 3.19696 21.6894 4.04368C21.7503 5.41795 20.3006 6.51426 20.2866 6.5243C20.0759 6.67869 20.0324 6.95977 20.187 7.16435C20.3205 7.3409 20.5854 7.40805 20.7943 7.32185C20.4744 7.72964 20.17 8.28315 19.904 9.02706C19.6383 8.28315 19.3336 7.72998 19.0137 7.3222ZM7.2087 13.4794C7.39207 13.1641 7.69352 13.0523 7.89571 13.0523C8.20748 13.0523 8.23294 13.2773 8.24106 13.3513C8.27058 13.6124 8.2263 13.7352 8.19863 13.7643C8.18571 13.7778 8.13738 13.7913 8.05842 13.7913C7.8138 13.7913 7.49649 13.6674 7.39613 13.6203C7.3264 13.5867 7.24781 13.5691 7.16922 13.5691C7.16701 13.5691 7.16479 13.5691 7.16258 13.5691C7.17734 13.5365 7.19283 13.5064 7.2087 13.4794ZM8.05842 19.7914C8.12779 19.7914 8.18313 19.8021 8.199 19.8187C8.22667 19.8475 8.27058 19.9707 8.24106 20.2314C8.23257 20.3054 8.20711 20.5305 7.89571 20.5305C7.69352 20.5305 7.39207 20.4186 7.2087 20.1033C7.19283 20.0763 7.17734 20.0462 7.16221 20.0133C7.24191 20.0154 7.32308 19.997 7.39466 19.9631C7.49612 19.915 7.81306 19.7914 8.05842 19.7914ZM32.7915 20.1033C32.6081 20.4186 32.3067 20.5305 32.1045 20.5305C31.7931 20.5305 31.7672 20.3054 31.7591 20.2314C31.7296 19.9704 31.7739 19.8471 31.8012 19.8187C31.817 19.8021 31.8724 19.7914 31.9418 19.7914C32.1753 19.7914 32.4786 19.9039 32.6044 19.9624C32.6764 19.997 32.7564 20.0157 32.838 20.0136C32.8228 20.0462 32.8073 20.0763 32.7915 20.1033ZM35.5989 18.468C34.1773 18.468 33.0568 17.1626 33.0461 17.1502C32.9509 17.0359 32.8073 16.9702 32.6527 16.9702C32.5487 16.9702 32.4491 16.9999 32.3642 17.0567C32.1679 17.1875 32.1019 17.4271 32.1963 17.6272C31.8141 17.3634 31.3123 17.1107 30.6581 16.8836C30.6024 16.8642 30.5441 16.8545 30.4851 16.8545C30.2881 16.8545 30.1091 16.9636 30.0291 17.1329C29.8822 17.4434 29.556 17.6438 29.1981 17.6438H21.3119C21.0367 17.6438 20.8131 17.8539 20.8131 18.1118V40.2151C20.8131 40.5208 20.6345 40.8053 20.3467 40.958C20.1268 41.0746 20.0346 41.327 20.1316 41.5458C20.3286 41.9892 20.5478 42.3665 20.7876 42.6767C20.5792 42.5939 20.3198 42.6625 20.1873 42.8366C20.0324 43.0405 20.0755 43.3216 20.2851 43.476C20.2999 43.487 21.7499 44.5844 21.689 45.9576C21.6514 46.8043 21.0511 47.623 19.9036 48.3922C18.7565 47.623 18.1558 46.8043 18.1182 45.9576C18.0573 44.5833 19.507 43.487 19.521 43.477C19.7317 43.3226 19.7752 43.0415 19.6206 42.8369C19.5273 42.7137 19.3749 42.64 19.2136 42.64C19.1469 42.64 19.0812 42.6524 19.0199 42.6767C19.2601 42.3665 19.4789 41.9895 19.676 41.5458C19.773 41.3273 19.6808 41.0746 19.4608 40.958C19.1734 40.8057 18.9945 40.5208 18.9945 40.2151V18.1118C18.9945 17.8536 18.7705 17.6438 18.4956 17.6438H10.6105C10.2667 17.6438 9.956 17.4624 9.79882 17.1702C9.71359 17.0113 9.54276 16.9127 9.35311 16.9127C9.29076 16.9127 9.22914 16.9238 9.17084 16.9452C8.59932 17.156 8.15177 17.3873 7.80384 17.6275C7.89866 17.4274 7.83262 17.1879 7.6367 17.057C7.55184 17.0003 7.45185 16.9702 7.34743 16.9702C7.19283 16.9702 7.04968 17.0356 6.95485 17.1488C6.94379 17.1619 5.82324 18.4677 4.40126 18.4677C3.46594 18.4677 2.56235 17.9038 1.71484 16.7908C2.56235 15.6783 3.46594 15.1144 4.40126 15.1144C5.82287 15.1144 6.94342 16.4197 6.95412 16.4322C7.04931 16.5464 7.19283 16.6122 7.34743 16.6122C7.45148 16.6122 7.5511 16.5825 7.63596 16.5257C7.83262 16.3948 7.89866 16.1553 7.80347 15.9548C8.1514 16.1951 8.59895 16.4263 9.17048 16.6371C9.22914 16.6586 9.29039 16.6697 9.35274 16.6697C9.54239 16.6697 9.71322 16.571 9.79845 16.4121C9.95526 16.12 10.2663 15.9386 10.6098 15.9386H18.4956C18.7709 15.9386 18.9945 15.7285 18.9945 15.4706V10.555C18.9945 10.1846 19.2483 9.85855 19.6265 9.74362C19.7475 9.70693 19.8435 9.63042 19.9032 9.53454C19.963 9.63042 20.0589 9.70693 20.18 9.74362C20.5581 9.85855 20.812 10.1846 20.812 10.555V15.4706C20.812 15.7288 21.036 15.9386 21.3108 15.9386H29.1967C29.5546 15.9386 29.8807 16.139 30.0276 16.4495C30.1076 16.6185 30.2866 16.7278 30.4836 16.7278C30.5426 16.7278 30.6009 16.7181 30.6567 16.6988C31.3108 16.472 31.813 16.219 32.1952 15.9552C32.1004 16.1556 32.1664 16.3952 32.3631 16.5257C32.448 16.5821 32.548 16.6122 32.652 16.6122C32.807 16.6122 32.9501 16.5464 33.045 16.4326C33.056 16.4194 34.1703 15.1144 35.5978 15.1144C36.5331 15.1144 37.4367 15.6783 38.2842 16.7908C37.4375 17.9041 36.5342 18.468 35.5989 18.468Z" fill="white"/>
<path d="M32.653 16.1441C34.9697 12.7665 31.4413 11.7301 31.2631 13.3017C31.0849 14.8733 32.8312 14.0373 32.8312 14.0373C32.8862 15.1513 31.6767 15.846 30.485 16.2593C30.2658 15.7958 29.7706 15.4701 29.198 15.4701H21.3122V10.5546C21.3122 9.96884 20.9 9.46968 20.3348 9.29798C20.7521 8.07602 21.5199 6.66885 22.8397 6.72597C22.8397 6.72597 21.9486 8.36437 23.6237 8.19717C25.2988 8.02997 24.1941 4.7196 20.5942 6.89317C20.5942 6.89317 24.6092 3.95043 19.9046 1.04126C15.1999 3.95043 19.215 6.89317 19.215 6.89317C15.6154 4.7196 14.5103 8.02997 16.1854 8.19717C17.8605 8.36437 16.9695 6.72597 16.9695 6.72597C18.2889 6.66885 19.0571 8.07602 19.4744 9.29798C18.9091 9.46968 18.497 9.96884 18.497 10.5546V15.4701H10.6108C10.0621 15.4701 9.5858 15.7692 9.35372 16.2012C8.21695 15.782 7.11707 15.1004 7.16946 14.037C7.16946 14.037 8.91576 14.873 8.73755 13.3014C8.55934 11.7298 5.03095 12.7662 7.34767 16.1437C7.34767 16.1437 4.21112 12.3768 1.11035 16.7907C4.21112 21.2047 7.34767 17.438 7.34767 17.438C5.03095 20.8156 8.55934 21.852 8.73755 20.2804C8.91576 18.7088 7.16946 19.5448 7.16946 19.5448C7.11707 18.4814 8.21695 17.7998 9.35372 17.3806C9.5858 17.8129 10.0625 18.1117 10.6108 18.1117H18.4966V40.215C18.4966 40.7072 18.7877 41.1382 19.2165 41.3653C18.7656 42.3802 18.0535 43.3218 16.9695 43.2747C16.9695 43.2747 17.8605 41.6363 16.1854 41.8035C14.5103 41.9707 15.615 45.2811 19.215 43.1075C19.215 43.1075 15.1999 46.0503 19.9046 48.9594C24.6092 46.0503 20.5942 43.1075 20.5942 43.1075C24.1941 45.2811 25.2988 41.9707 23.6237 41.8035C21.9486 41.6363 22.8397 43.2747 22.8397 43.2747C21.7557 43.3214 21.0436 42.3802 20.5927 41.3653C21.0211 41.1382 21.3125 40.7072 21.3125 40.215V18.1117H29.1984C29.7714 18.1117 30.2662 17.7859 30.4853 17.3224C31.6771 17.7357 32.8865 18.4305 32.8316 19.5444C32.8316 19.5444 31.0853 18.7085 31.2635 20.28C31.4417 21.8516 34.9701 20.8152 32.6534 17.4377C32.6534 17.4377 35.7899 21.2046 38.8907 16.7904C35.7895 12.3775 32.653 16.1441 32.653 16.1441Z" fill="#5C0000"/>
</svg>
