<svg width="254" height="37" viewBox="0 0 254 37" fill="none" xmlns="http://www.w3.org/2000/svg">
<path d="M0.0422211 20.3432C-0.127991 21.7459 0.195404 22.9328 1.39288 23.5976C2.21089 24.0516 2.51025 24.5941 2.65244 25.4635C2.83167 26.5547 3.44942 27.536 4.57681 27.6266C5.85439 27.7305 7.27115 27.7671 8.42757 27.3111C10.3139 26.568 12.041 25.4054 13.8302 24.4119C15.241 23.6281 16.6137 22.7659 18.0585 22.0523C21.2274 20.4897 24.6046 19.8667 28.246 19.7578C26.9314 21.127 25.5667 22.1887 24.6606 23.5619C22.1095 27.4312 23.9017 29.4864 26.6931 30.992C27.7544 31.5641 28.4543 31.1365 28.2991 29.9007C28.0117 27.6205 29.036 26.2259 30.8733 25.209C33.1651 23.9396 35.1946 22.4004 35.9145 19.7283C39.5871 19.7283 43.0934 19.7283 46.5987 19.7283C42.826 21.7693 40.1407 24.9138 37.4464 28.0369C37.139 28.3931 37.0229 28.9184 36.8176 29.3653C37.3172 29.574 37.8129 29.9537 38.3165 29.9659C44.0606 30.0993 49.5033 29.0599 54.3863 25.7281C56.2646 24.4465 58.2241 23.2677 60.2295 22.205C63.3154 20.5681 66.6094 19.6072 70.1308 19.7405C72.5417 19.8321 74.8015 20.394 76.7139 22.1989C75.5545 23.3115 74.5602 24.2653 73.592 25.1937C72.5037 24.8975 71.5285 24.5758 70.5303 24.3722C68.0582 23.8673 65.5451 23.7543 63.1722 24.6654C61.8475 25.1744 60.605 26.058 59.5146 26.9996C58.6526 27.7437 58.3622 28.8899 58.9289 30.0555C59.5257 31.2831 60.582 31.7239 61.8355 31.6038C62.6996 31.5213 63.5466 31.2444 64.3967 31.0327C64.9964 30.8831 65.5862 30.6958 66.3271 30.483C66.1939 31.1437 66.0807 31.5631 66.0277 31.9896C65.8835 33.1613 66.0127 34.2403 67.1791 34.8664C68.3616 35.5016 69.3007 34.8898 70.1698 34.1741C70.8436 33.6183 71.4444 32.9719 72.1212 32.3245C72.2624 32.6777 72.4176 33.0798 72.5808 33.4778C72.777 33.9553 72.9272 34.4622 73.1895 34.8999C73.8804 36.0492 74.9737 36.6498 75.8799 36.4472C76.9422 36.21 77.7542 35.1768 77.9124 33.8168C77.9834 33.2081 78.0025 32.5922 78.0475 31.9387C78.9837 32.296 79.7176 32.6299 80.4825 32.8549C81.3016 33.0961 82.1486 33.0462 82.6182 32.2074C83.0838 31.3768 82.7543 30.5767 82.0895 30.0168C81.2485 29.3073 80.3684 28.6201 79.4222 28.0715C78.1847 27.3538 76.8671 26.7807 75.5635 26.1353C77.3637 23.7625 79.2681 22.718 82.5661 21.6797C85.2324 20.8409 87.1267 21.6543 88.6756 23.7319C87.5983 24.363 86.541 24.8832 85.5959 25.5632C84.6887 26.2157 83.8988 27.0576 84.1851 28.3575C84.4024 29.3429 85.4947 29.9506 87.0156 29.9944C87.7255 30.0148 88.4364 29.9974 89.1963 29.9974C89.1162 30.3456 89.0581 30.5594 89.0191 30.7752C88.6907 32.5831 88.981 33.5226 90.0424 34.0968C91.0536 34.6444 92.0568 34.3411 93.3454 33.086C93.795 32.6482 94.2295 32.1952 94.6911 31.73C95.0956 32.7195 95.3619 33.5654 95.7754 34.3289C96.1869 35.0872 96.9329 35.6756 97.7619 35.3244C98.3286 35.0842 98.8182 34.3899 99.0935 33.7822C99.3859 33.1368 99.3839 32.353 99.5281 31.5275C100.207 31.9184 100.811 32.3113 101.452 32.6238C102.317 33.0452 103.31 33.0829 103.828 32.2492C104.198 31.6557 104.346 30.6286 104.099 29.9954C103.708 28.9958 102.976 28.0959 102.252 27.2795C101.439 26.3613 100.474 25.5816 99.5691 24.7356C104.38 20.4958 112.902 20.4083 115.132 23.4214C114.638 23.9518 114.093 24.4547 113.645 25.0349C112.972 25.9063 112.203 26.7583 111.768 27.7518C111.052 29.3877 111.925 30.6316 113.67 30.5074C114.668 30.4362 115.706 30.1583 116.612 29.7267C118.322 28.9113 119.949 27.9178 121.498 27.0596C122.126 28.4329 122.675 29.8621 123.413 31.1814C124.13 32.464 125.049 33.6305 125.868 34.8551C126.6 35.9505 127.346 35.9932 128.08 34.9305C128.959 33.656 129.896 32.409 130.641 31.0561C131.358 29.7562 131.864 28.3361 132.398 27.1156C134.523 28.1661 136.642 29.3276 138.855 30.2581C139.901 30.6978 141.181 30.9014 142.121 29.8346C142.806 29.0559 142.587 27.8781 141.47 26.401C140.64 25.3036 139.711 24.2836 138.833 23.2362C142.288 20.1212 150.488 21.0089 154.371 24.7682C153.416 25.6813 152.385 26.5262 151.532 27.5259C150.828 28.3514 150.17 29.2961 149.783 30.3039C149.188 31.8552 150.402 33.1765 151.992 32.7632C152.813 32.5495 153.562 32.0466 154.553 31.5743C154.651 32.3571 154.693 33.0269 154.827 33.6774C155.001 34.5152 155.365 35.2542 156.316 35.3865C157.234 35.5138 157.878 35.0017 158.272 34.2383C158.674 33.4575 158.952 32.6105 159.313 31.727C160.06 32.4385 160.758 33.1887 161.543 33.828C162.277 34.4256 163.262 34.678 163.974 34.0337C164.559 33.5033 164.924 32.6146 165.147 31.8155C165.288 31.3096 164.991 30.6764 164.871 29.9914C165.743 29.9914 166.538 30.031 167.327 29.9822C168.394 29.916 169.382 29.6259 169.733 28.4267C170.076 27.253 169.477 26.402 168.634 25.7302C168.065 25.2752 167.417 24.9158 166.784 24.5493C166.307 24.2725 165.797 24.0516 165.139 23.7248C165.979 23.0031 166.613 22.4126 167.297 21.8904C167.625 21.64 168.054 21.3519 168.428 21.3642C172.389 21.4833 175.813 22.8168 178.562 26.0997C177.88 26.4153 177.342 26.6077 176.863 26.8968C175.234 27.8791 173.579 28.8268 172.031 29.9293C171.338 30.4219 170.701 31.2231 171.377 32.2217C171.976 33.1073 172.844 33.1012 173.733 32.7897C174.471 32.5312 175.188 32.2146 176.058 31.8664C176.058 32.4426 176.038 32.8701 176.062 33.2946C176.164 35.1015 177.002 36.32 178.243 36.49C179.304 36.6356 180.491 35.7112 181.156 34.1802C181.428 33.5532 181.636 32.8976 181.815 32.4182C182.617 33.1206 183.305 33.7924 184.063 34.3665C184.903 35.0017 185.821 35.4965 186.886 34.8297C187.88 34.2067 188.167 33.2539 188.035 32.1392C187.978 31.6506 187.851 31.1701 187.716 30.481C188.793 30.7986 189.672 31.1009 190.572 31.3096C191.278 31.4725 192.018 31.6465 192.728 31.5946C194.968 31.4277 195.999 29.3124 194.787 27.3905C194.441 26.8428 193.932 26.3705 193.417 25.9714C191.923 24.812 190.192 24.2816 188.332 24.1055C185.597 23.8469 182.958 24.2918 180.642 25.1693C179.447 24.0495 178.408 23.0774 177.065 21.8182C178.758 21.1535 180.128 20.4541 181.579 20.0774C185.054 19.1735 188.446 19.8718 191.635 21.2736C194.103 22.3587 196.463 23.7452 198.754 25.1896C202.398 27.4882 206.152 29.4284 210.513 29.7348C212.668 29.8865 214.837 30.1817 217.343 29.8173C216.473 27.2296 214.594 25.7739 213.013 24.1981C211.339 22.5287 209.339 21.1982 207.424 19.6743C210.955 19.6743 214.43 19.6743 217.847 19.6743C219.591 22.8382 220.015 23.3706 222.583 24.8853C224.601 26.0753 226.249 27.3691 225.604 30.1502C225.465 30.7518 225.937 31.2943 226.68 31.2414C228.777 31.0928 230.866 28.155 230.439 26.0203C229.984 23.7513 228.504 22.2478 226.828 20.8705C226.493 20.5946 226.203 20.2637 225.736 19.8046C229.695 19.8342 233.308 20.6526 236.39 22.2986C239.294 23.85 242.165 25.4665 245.015 27.1187C248.137 28.9296 250.946 27.7539 251.551 24.3183C253.939 22.8076 254.022 22.5735 253.81 19.6438C253.741 18.6991 253.805 17.727 253.941 16.7874C254.168 15.2198 253.762 13.9524 252.376 13.1879C251.721 12.8265 251.482 12.4092 251.342 11.6742C251.002 9.89786 249.872 8.93997 248.084 9.07333C246.959 9.1568 245.783 9.52326 244.772 10.0465C241.657 11.662 238.657 13.5147 235.52 15.0854C232.515 16.5899 229.264 17.1417 225.532 17.1325C226.52 16.3303 227.242 15.8346 227.853 15.2238C228.473 14.6029 229.065 13.9198 229.528 13.1737C231.385 10.1758 230.606 7.55861 227.462 6.04592C226.167 5.42293 225.603 5.8016 225.731 7.33058C225.877 9.07434 225.218 10.3529 223.824 11.3037C222.611 12.1303 221.265 12.8194 220.234 13.8384C219.219 14.8411 218.526 16.1807 217.74 17.3025C214.27 17.3025 210.83 17.3025 207.39 17.3025C211.145 15.2137 213.864 12.1058 216.525 8.94506C216.849 8.56027 217.051 7.89352 216.976 7.41101C216.939 7.17178 216.136 6.89184 215.692 6.91017C213.649 6.99669 211.605 7.12699 209.572 7.34381C205.533 7.77339 202.087 9.69633 198.702 11.8218C196.53 13.1849 194.306 14.5031 191.985 15.5709C188.804 17.0348 185.417 17.6048 181.923 17.0043C180.209 16.7101 178.588 16.1715 177.8 15.2289C178.752 13.932 179.581 12.8031 180.41 11.6722C182.936 12.684 185.434 13.1105 188.03 12.8988C189.885 12.7481 191.627 12.2636 193.177 11.1846C195.025 9.89788 195.698 8.35263 195.061 6.89084C194.478 5.55325 192.948 5.0697 190.831 5.58071C190.264 5.71814 189.718 5.94617 189.152 6.08665C188.702 6.1976 188.237 6.23833 187.685 6.32486C187.777 5.91055 187.828 5.69677 187.871 5.48096C188.222 3.72498 187.935 2.73147 186.912 2.14309C185.912 1.56794 184.809 1.84686 183.568 3.02057C183.001 3.55601 182.463 4.12402 181.926 4.66456C181.42 3.56923 181.057 2.52276 180.482 1.61373C179.94 0.756607 179.038 0.330104 178 0.585612C176.973 0.838065 176.389 1.59846 176.205 2.62252C176.068 3.38497 176.052 4.17084 175.984 4.92209C174.81 4.60856 173.78 4.21665 172.721 4.10671C172.272 4.05989 171.545 4.49963 171.345 4.917C171.149 5.3252 171.288 6.13551 171.59 6.50401C172.188 7.23084 172.939 7.88231 173.741 8.36991C175.232 9.27691 176.805 10.0445 178.492 10.9484C175.89 14.1204 172.486 15.3602 168.655 15.6656C168.27 15.6962 167.794 15.5038 167.475 15.2605C166.672 14.6466 165.934 13.9443 165.093 13.2093C165.717 12.9355 166.278 12.7665 166.757 12.4621C167.557 11.9542 168.406 11.4594 169.055 10.7825C170.489 9.28508 170.022 7.68586 168.028 7.09137C167.481 6.9285 166.883 6.91934 166.307 6.89389C165.841 6.87353 165.371 6.93461 164.797 6.96413C164.915 6.48569 165.002 6.20474 165.052 5.91666C165.308 4.43247 164.918 3.30254 163.915 2.84548C162.743 2.31207 161.787 2.8027 160.945 3.63641C160.405 4.17084 159.872 4.71139 159.346 5.23971C158.901 4.21462 158.655 3.23431 158.096 2.49935C157.713 1.99342 156.837 1.4987 156.29 1.60049C155.743 1.70331 155.177 2.4841 154.905 3.09894C154.605 3.77894 154.63 4.60756 154.504 5.43312C153.636 4.96893 152.958 4.53629 152.227 4.23396C151.407 3.89498 150.622 4.10978 150.022 4.76636C149.464 5.37917 149.395 6.15077 149.816 6.83586C150.468 7.89555 151.154 8.95016 151.958 9.89075C152.704 10.7642 153.622 11.4849 154.477 12.284C150.196 15.7552 142.793 17.1396 138.895 13.7101C139.932 12.3949 141.011 11.1062 141.998 9.74723C142.538 9.00209 142.786 8.07674 142.208 7.24303C141.594 6.35843 140.607 6.08971 139.66 6.46941C137.834 7.2003 136.056 8.06045 134.281 8.91452C133.582 9.25146 132.942 9.71568 132.45 10.015C131.857 8.59999 131.434 7.27054 130.768 6.0836C129.976 4.6717 128.982 3.37583 128.06 2.04128C127.342 1.00195 126.567 1.03452 125.848 2.14206C125.365 2.88415 125.013 3.72599 124.46 4.40497C123.107 6.0673 121.957 7.81412 121.721 10.1799C120.686 9.51716 119.869 8.87075 118.955 8.4371C117.374 7.68687 115.768 6.94069 114.098 6.46124C113.473 6.28208 112.371 6.6343 111.98 7.13921C111.598 7.63394 111.638 8.70279 111.869 9.38889C112.142 10.1971 112.778 10.8975 113.328 11.5867C113.911 12.3176 114.576 12.9802 115.203 13.6714C111.789 16.7243 104.64 16.31 99.5501 12.283C100.463 11.4289 101.44 10.6562 102.241 9.72685C102.999 8.84734 103.751 7.87315 104.159 6.80429C104.39 6.19759 104.162 5.05036 103.707 4.63299C103.248 4.21156 102.225 4.22275 101.505 4.35611C100.837 4.47928 100.243 5.01472 99.5511 5.4046C99.3919 4.57191 99.3749 3.79317 99.0795 3.14473C98.7982 2.52378 98.2475 1.61984 97.7789 1.59642C97.1271 1.56385 96.259 2.08708 95.8165 2.64492C95.2708 3.33204 95.0675 4.2991 94.6871 5.21628C93.8761 4.47012 93.1982 3.67407 92.3662 3.1142C90.6791 1.97816 88.8819 2.99204 88.8569 5.04934C88.8489 5.68251 89.0161 6.31669 89.1132 7.02825C88.2682 6.97531 87.5443 6.82567 86.8464 6.90914C85.747 7.04046 84.6026 7.29802 84.2252 8.57556C83.8427 9.86837 84.6517 10.7306 85.5608 11.3821C86.553 12.0926 87.6604 12.6372 88.6496 13.2154C86.9645 15.9435 84.5355 16.0626 81.8352 15.0691C80.9431 14.7413 80.039 14.4237 79.197 13.986C77.7822 13.251 76.4546 12.3797 75.5745 10.7845C76.0871 10.5504 76.4956 10.4058 76.8611 10.187C78.5562 9.17512 80.2713 8.19381 81.9103 7.09442C82.6752 6.58136 83.1619 5.71304 82.6152 4.77652C82.0805 3.86137 81.1313 3.92143 80.2533 4.18C79.5173 4.39682 78.8135 4.72666 77.9664 5.05648C77.9664 4.35714 78.0105 3.839 77.9584 3.33103C77.8032 1.81733 76.9682 0.743367 75.8368 0.537739C74.8005 0.349417 73.7682 0.977519 73.0764 2.32224C72.6819 3.08978 72.4016 3.91738 72.0842 4.68289C71.1791 3.85121 70.4101 2.91368 69.4409 2.30494C67.6717 1.19435 66.0117 2.21943 66.0137 4.32762C66.0137 4.96893 66.1669 5.61025 66.275 6.44803C65.484 6.2251 64.8132 6.00318 64.1264 5.85049C63.2733 5.66115 62.4142 5.4484 61.5482 5.39037C60.3497 5.30995 59.4325 5.83522 58.9149 6.99569C58.4253 8.09101 58.7407 9.05398 59.4296 9.89277C61.0866 11.9124 63.3634 12.6413 65.8264 12.8795C68.4867 13.136 71.0619 12.6789 73.1385 11.8635C74.4311 12.964 75.5264 13.8954 76.6668 14.8665C75.17 16.1431 73.58 16.761 71.8028 17.047C69.0584 17.4878 66.3441 17.2699 63.828 16.2123C61.0085 15.0253 58.151 13.7427 55.6509 11.9979C50.3553 8.30071 44.5391 6.87455 38.2464 6.92035C37.5335 6.92544 36.9348 7.04659 36.7245 8.06251C39.6061 11.5287 42.5747 15.0243 46.6678 17.3758C43.1244 17.3758 39.58 17.3758 35.9295 17.3758C35.2216 14.5561 33.1681 13.0423 30.8763 11.7638C29.045 10.7428 27.9587 9.32681 28.3251 7.0649C28.3802 6.72694 28.241 6.3574 28.192 6.00926C27.9016 5.91663 27.6713 5.75277 27.5011 5.80265C24.4003 6.70456 22.4499 9.15883 24.0358 12.2982C24.5595 13.3345 25.3414 14.2598 26.1194 15.1302C26.7372 15.8214 27.5282 16.3528 28.5034 17.1753C24.6486 17.0979 21.2494 16.5258 18.0845 14.9133C16.3874 14.0481 14.7874 12.9884 13.0933 12.115C11.0889 11.0818 9.10341 9.92435 6.97778 9.24639C4.61987 8.4931 3.19611 9.49069 2.57935 11.9083C2.41414 12.5547 2.17285 12.8917 1.61417 13.2154C0.255493 14.0033 -0.152039 15.2188 0.083252 16.8159C0.245453 17.9662 0.183395 19.1806 0.0422211 20.3432ZM61.5902 29.7898C61.2678 29.8488 60.8643 29.4488 60.3637 29.1933C62.3382 26.1017 66.7436 25.0339 70.9968 26.5975C67.7158 27.7956 64.7922 29.2004 61.5902 29.7898ZM67.7919 33.2977C67.937 30.707 69.6161 30.0687 71.162 29.3001C70.6023 30.9594 69.8985 32.4874 67.7919 33.2977ZM75.8118 34.6709C73.8974 33.3435 73.5149 31.5224 74.5342 28.3982C75.7187 30.5482 76.7609 32.3428 75.8118 34.6709ZM191.959 27.2205C192.692 27.6521 193.708 28.1947 193.302 29.2096C192.846 30.3486 191.75 29.7236 191 29.4793C188.395 28.6304 185.825 27.6694 183.241 26.7502C186.324 25.6233 189.226 25.609 191.959 27.2205ZM186.27 32.9088C184.536 32.7561 183.66 31.8094 182.629 28.9194C184.372 30.1064 186.044 30.7731 186.27 32.9088ZM178.514 34.5589C177.37 33.0646 177.711 31.0256 179.483 28.7494C180.525 31.2221 180.238 32.9434 178.514 34.5589ZM245.619 11.4859C246.386 11.2701 247.184 10.9097 248.003 10.8497C248.985 10.7774 249.767 11.263 249.597 12.4326C249.411 13.7234 249.928 14.3596 251.123 14.6517C252.085 14.8879 252.237 15.5893 252.132 16.5421C251.997 17.7606 251.907 19.029 252.094 20.2271C252.278 21.3967 252.107 22.1205 250.918 22.3842C249.896 22.6112 249.532 23.1863 249.564 24.2837C249.606 25.7526 249.161 26.1048 247.776 26.0702C247.415 26.061 247.045 26.0091 246.699 25.9053C246.36 25.8045 246.048 25.6141 245.552 25.383C245.552 24.3427 245.552 23.4652 245.552 22.5796C248.429 21.0109 248.132 20.2698 246.742 18.4813C248.118 16.7986 248.487 15.9792 245.492 14.3535C245.53 13.4923 245.569 12.6158 245.619 11.4859ZM243.776 12.8601C243.24 14.0847 242.788 15.1149 242.187 16.4851C243.51 16.4851 244.398 16.4851 245.286 16.4851C242.768 18.3897 242.768 18.3938 245.599 20.4134C244.47 20.4673 243.593 20.5091 242.755 20.5488C242.228 21.3173 242.501 21.8599 242.931 22.4249C243.256 22.8504 243.498 23.341 243.777 23.8022C243.668 23.9314 243.56 24.0607 243.451 24.19C241.62 23.1079 239.836 21.9271 237.942 20.9722C236.062 20.0245 234.069 19.3048 232.417 18.6085C235.948 16.823 239.726 14.9103 243.776 12.8601ZM222.696 14.21C226.146 11.8442 226.162 11.8697 227.911 8.75267C228.998 9.79811 228.639 10.8965 228.071 11.945C227.162 13.6216 225.728 14.7627 224.07 15.5852C222.99 16.1207 221.837 16.5044 220.718 16.9554C220.585 16.7437 220.451 16.5309 220.319 16.3181C221.108 15.6107 221.831 14.8034 222.696 14.21ZM228.098 25.1072C228.673 26.1089 228.891 27.1624 227.646 28.6303C227.14 25.5602 225.231 24.244 223.151 23.0621C222.007 22.4126 220.961 21.6207 220.186 19.9309C223.61 20.9193 226.397 22.1439 228.098 25.1072ZM213.672 28.0206C210.254 28.0705 207.082 27.592 204.131 26.0743C202.316 25.1398 200.585 24.0363 198.826 22.9919C197.387 22.1378 195.962 21.2573 194.274 20.2322C200.712 18.2299 209.985 21.9851 213.672 28.0206ZM202.84 11.5521C206.136 9.63625 209.703 8.83513 213.566 9.01225C210.096 15.12 200.276 18.7653 194.141 16.8057C197.204 14.951 199.996 13.2062 202.84 11.5521ZM191.64 7.2868C191.841 7.21657 192.1 7.16263 192.286 7.23185C192.664 7.37436 193.122 7.52706 193.328 7.8294C193.456 8.0167 193.291 8.61119 193.071 8.80765C192.475 9.33903 191.832 9.87649 191.115 10.1961C188.576 11.3301 185.964 11.3841 183.236 10.2206C186.037 9.24028 188.836 8.25794 191.64 7.2868ZM185.671 3.34731C185.963 4.04054 186.254 4.38768 186.185 4.62588C185.715 6.24545 184.398 6.97633 183.08 7.68687C182.919 7.53519 182.759 7.38455 182.598 7.23287C183.552 6.02659 184.507 4.8203 185.671 3.34731ZM178.475 2.44641C180.171 3.86544 180.486 5.61634 179.525 8.27932C177.729 5.994 177.372 4.01305 178.475 2.44641ZM168.893 17.4644C171.067 16.934 173.27 16.5238 175.741 16.0128C176.845 16.709 178.248 17.5946 179.665 18.4884C178.461 19.261 177.339 20.0632 176.138 20.7106C175.7 20.9468 175.047 20.9346 174.533 20.8308C172.69 20.4612 170.875 19.9461 169.028 19.6092C168.282 19.4728 167.66 19.201 167.725 18.4752C167.758 18.0945 168.429 17.5774 168.893 17.4644ZM85.9663 28.0206C88.0669 25.4166 90.6701 25.4614 93.2143 25.438C91.0937 26.7573 89.1523 28.5265 85.9663 28.0206ZM90.9134 32.2421C91.0155 30.029 92.7317 29.0345 94.2395 27.8669C93.6949 29.7613 92.7988 31.3972 90.9134 32.2421ZM88.0759 20.0764C91.3179 19.5064 93.9522 20.6373 96.1579 22.9827C93.1892 22.83 90.2085 22.7272 88.0759 20.0764ZM97.3193 32.7653C96.4793 31.4908 96.7666 30.1318 97.028 28.7678C97.9801 29.9985 97.3984 31.4226 97.3193 32.7653ZM102.376 30.7548C100.874 30.3395 100.389 29.8325 99.0124 27.0464C101.428 28.7586 101.688 29.0569 102.376 30.7548ZM113.679 28.556C114.414 25.5419 121.884 19.7293 124.95 19.9309C123.252 24.0007 117.489 28.3473 113.679 28.556ZM129.374 29.7786C128.679 30.7996 127.877 31.7453 127.022 32.8589C122.945 27.7274 122.772 26.7258 125.368 23.7268C125.629 25.4329 124.345 27.0342 125.251 28.8176C126.502 28.4837 126.36 27.2205 126.921 26.3308C127.429 27.2266 127.909 28.0755 128.508 29.1332C129.714 27.1176 128.398 25.4421 128.517 23.6953C130.602 25.7465 130.867 27.5839 129.374 29.7786ZM140.445 28.5855C135.472 27.4342 131.666 24.6389 128.839 20.1182C129.261 19.9421 129.644 19.6265 129.853 19.7181C134.19 21.6349 137.909 24.3468 140.445 28.5855ZM151.766 30.7782C152.183 29.1352 152.547 28.6996 154.564 27.4251C153.945 29.3979 153.395 30.0575 151.766 30.7782ZM156.592 32.7276C156.592 31.4094 156.592 30.0911 156.592 28.7729C157.415 30.1461 157.541 31.4491 156.592 32.7276ZM159.532 27.9168C161.749 28.8889 162.935 30.3446 163.137 32.6207C161.197 31.3554 160.29 29.7715 159.532 27.9168ZM167.768 28.0644C164.885 28.5285 162.915 26.7899 160.56 25.6162C163.19 24.8435 166.355 25.9134 167.768 28.0644ZM157.777 23.0183C159.779 20.5172 163.354 19.2081 165.975 20.0174C164.851 22.0665 161.39 23.3339 157.777 23.0183ZM167.629 9.20973C165.811 11.2772 163.503 11.7882 160.914 11.4452C162.945 10.0954 164.874 8.46052 167.629 9.20973ZM163.029 4.72054C163.009 6.97939 161.194 7.92201 159.739 9.13847C160.23 7.2074 161.238 5.66113 163.029 4.72054ZM166.402 17.2883C162.784 17.4033 160.091 16.425 157.716 14.211C160.304 13.4027 164.421 14.7189 166.402 17.2883ZM156.594 3.65778C157.615 5.484 157.339 6.87046 157.036 8.25692C156.889 8.25997 156.741 8.26406 156.594 8.26711C156.594 6.8888 156.594 5.51047 156.594 3.65778ZM151.647 5.93088C153.301 6.67908 154.036 8.03399 154.837 9.56907C152.873 8.61728 152.148 7.79476 151.647 5.93088ZM146.118 17.4409C149.326 17.2017 152.175 15.9232 154.847 14.4451C156.759 15.8621 158.57 17.2038 160.314 18.4966C158.623 19.7405 156.828 21.0608 154.858 22.5094C149.225 19.2875 143.313 17.9957 137.214 21.9485C135.363 20.7361 133.71 19.654 131.938 18.4935C133.716 17.3259 135.416 16.2092 137.212 15.0304C139.931 16.7762 142.869 17.6832 146.118 17.4409ZM140.681 8.2325C140.357 8.85142 140.181 9.36855 139.863 9.76861C137.328 12.9457 134.103 15.2167 130.538 17.0368C129.978 17.3229 129.449 17.5244 129.022 16.8383C131.35 12.5476 136.171 8.90945 140.681 8.2325ZM124.315 7.66549C125.048 6.48161 125.964 5.4148 126.8 4.29301C130.846 7.86706 131.279 10.4842 128.601 13.305C128.373 11.5266 129.598 9.88261 128.601 7.79783C127.946 8.87076 127.458 9.6719 126.964 10.4802C126.524 9.67801 126.095 8.89519 125.588 7.96885C124.624 8.86567 124.938 9.75841 125.03 10.5697C125.119 11.3637 125.326 12.1445 125.516 13.1105C123.516 11.3922 123.12 9.59554 124.315 7.66549ZM113.553 8.37298C118.563 9.53345 122.337 12.3685 125.058 16.7101C124.199 17.7596 123.551 17.0898 122.979 16.7762C119.214 14.7108 115.712 12.3247 113.553 8.37298ZM102.632 5.74256C101.944 7.82734 100.737 8.73536 99.4059 9.53751C99.8905 7.98614 100.717 6.72184 102.632 5.74256ZM99.1376 14.4634C104.81 17.7087 110.707 19.0096 116.752 15.0335C118.527 16.1878 120.23 17.2964 122.058 18.4854C120.23 19.6784 118.532 20.786 116.77 21.9342C110.751 18.0141 104.843 19.2753 99.1326 22.4971C97.2092 21.0791 95.411 19.7537 93.6979 18.4905C95.3549 17.2638 97.1081 15.9659 99.1376 14.4634ZM96.9138 3.88074C97.7819 5.28756 97.7939 6.48363 96.9138 8.26913C96.9138 6.90405 96.9138 5.53899 96.9138 3.88074ZM94.4077 9.3431C92.6346 8.09406 91.1777 6.87455 90.4689 4.44672C92.6736 5.5166 93.5457 6.66078 94.4077 9.3431ZM86.2206 9.04484C88.7588 8.75065 90.2206 9.26472 92.974 11.322C90.544 12.0529 87.9758 11.2396 86.2206 9.04484ZM96.1158 13.9117C94.5709 16.3069 90.588 17.8013 88.0589 16.934C89.1352 14.9215 92.0969 13.8109 96.1158 13.9117ZM60.5119 7.58914C60.9895 7.46291 61.4781 7.16772 61.8966 7.24915C64.9594 7.84262 67.7628 9.18632 70.9307 10.3641C66.3471 11.9735 61.6833 10.7061 60.5119 7.58914ZM68.0872 3.66797C69.8544 4.60449 70.6284 6.00318 71.3653 7.64515C68.7 6.71575 67.856 5.71203 68.0872 3.66797ZM75.7066 2.15225C76.831 4.65439 75.5885 6.40528 74.7064 8.40048C73.4489 6.27091 73.7582 4.11182 75.7066 2.15225ZM78.2868 15.9995C80.7108 16.5177 82.8304 17.0114 84.9661 17.4063C85.696 17.5417 86.3187 17.7351 86.2627 18.5597C86.2086 19.3598 85.5518 19.4789 84.8389 19.6112C83.0597 19.9411 81.2875 20.3523 79.5494 20.8582C78.7654 21.0862 78.2037 21.0323 77.5389 20.5457C76.5407 19.8148 75.4463 19.2193 74.3029 18.5098C75.7417 17.6028 77.1774 16.6989 78.2868 15.9995ZM40.2198 8.9919C43.6771 8.88196 46.7899 9.28098 49.6094 10.7794C53.0166 12.5904 56.2967 14.6507 59.7569 16.6764C53.4642 18.7989 44.9356 15.4682 40.2198 8.9919ZM59.6749 20.3106C56.4509 22.2264 53.351 24.1513 50.1731 25.9317C47.1764 27.6114 43.8733 27.989 40.1738 28.0806C44.2038 21.8945 53.5823 18.0904 59.6749 20.3106ZM25.8381 11.8045C25.0231 10.3794 25.1382 9.94775 26.3837 8.65698C26.8423 11.32 28.6696 12.6952 30.7511 13.8476C31.9026 14.4858 32.9068 15.2961 33.4405 16.6653C30.2625 16.0677 27.5202 14.7444 25.8381 11.8045ZM33.7628 20.0225C32.9709 21.7286 31.8695 22.4411 30.7622 23.1405C27.6393 25.1133 27.6373 25.1092 26.2045 28.272C25.3825 27.7773 25.1112 27.0393 25.4496 26.2147C25.806 25.3423 26.2345 24.4425 26.8443 23.7472C28.5824 21.7632 30.8372 20.675 33.7628 20.0225ZM11.4012 15.0325C11.0488 14.4135 10.6083 13.8465 10.0275 12.9925C10.6033 12.9925 10.9227 12.8896 11.0979 13.0077C14.449 15.2757 17.9233 17.2842 22.1095 18.3764C19.8577 19.3313 17.8612 20.0551 15.9779 21.0099C14.1226 21.9505 12.3814 23.1252 10.2468 23.9121C10.7404 22.9572 11.234 22.0024 11.9229 20.6699C10.5632 20.5773 9.59901 20.5121 8.28339 20.4235C9.18851 19.7598 9.88336 19.2499 10.8776 18.521C10.0095 17.8644 9.31665 17.3402 8.28238 16.5584C9.26559 16.5584 9.93445 16.6011 10.5953 16.5482C11.5745 16.4708 11.8878 15.8886 11.4012 15.0325ZM3.23116 14.5184C4.06018 14.1641 4.52475 13.7977 4.43564 12.741C4.30649 11.1998 5.01335 10.6013 6.49718 10.8436C7.12195 10.9454 7.71469 11.2517 8.40656 11.494C8.45261 12.5323 8.49364 13.4668 8.53268 14.3626C6.04561 15.7267 5.66714 16.4036 7.01881 18.179C6.79654 19.2152 6.28893 20.1915 6.51521 20.9376C6.72346 21.6258 7.71869 22.0666 8.48163 22.713C8.48163 23.5416 8.48163 24.3509 8.48163 25.4289C7.70267 25.6559 6.9147 26.0162 6.1017 26.0946C4.78607 26.2219 4.26544 25.6915 4.42363 24.2725C4.53978 23.229 4.12526 22.8015 3.29123 22.4412C1.69426 21.752 1.76033 21.7306 1.94856 20.0561C2.0627 19.0391 2.07474 17.9876 1.95859 16.9727C1.75734 15.2177 1.68224 15.1801 3.23116 14.5184Z" fill="#5C0000"/>
</svg>
