<svg width="70" height="23" viewBox="0 0 70 23" fill="none" xmlns="http://www.w3.org/2000/svg">
<path d="M51.5388 13.0418C50.8991 13.0418 50.2701 13.0019 49.6667 12.9253C44.4174 12.2786 39.905 9.26242 35.5411 6.34515L34.9983 5.97991C33.1327 7.19535 30.7777 8.1541 28.7981 8.49778C26.9993 8.80478 23.8544 8.49203 23.0679 6.34263C22.7038 5.33138 22.8148 4.27664 23.38 3.37144C23.9094 2.52376 24.7903 1.90472 25.7973 1.6732C28.2415 1.10629 30.4664 2.35515 32.3592 3.56951C33.1905 4.09257 34.0035 4.63935 34.79 5.1678C34.8742 5.2167 34.9682 5.28032 35.065 5.34575L35.179 5.4227C35.183 5.42522 35.1867 5.42808 35.1908 5.4306L35.8955 5.90513C40.2106 8.78969 44.6587 11.7631 49.7521 12.3907C52.9828 12.7995 57.0122 12.1258 58.949 9.73373C58.0937 9.22684 56.6061 7.71554 56.5903 7.69684C55.4225 6.32107 55.099 5.16926 55.6015 4.17563C55.8607 3.6673 56.3486 3.31355 56.9756 3.1791C57.7284 3.01841 58.6125 3.19348 59.2286 3.62594C60.4797 4.48118 60.8866 6.42531 60.5554 7.80971C60.4041 8.43486 60.151 9.02083 59.8027 9.55576C61.9474 11.1911 66.3088 12.4982 69.6946 12.4982C69.863 12.4982 69.9997 12.619 69.9997 12.7678C69.9997 12.9167 69.863 13.0375 69.6946 13.0375C66.2201 13.0375 61.7407 11.6994 59.4715 10.0145C57.7597 12.1599 54.5396 13.0418 51.5388 13.0418ZM57.5587 3.65903C57.4093 3.65903 57.2612 3.67377 57.12 3.70397C56.8088 3.77083 56.3893 3.94482 56.159 4.39706C55.7553 5.19477 56.0564 6.169 57.0794 7.37401C57.2743 7.60409 58.7305 8.95219 59.2717 9.29191C59.5899 8.80444 59.821 8.26915 59.9593 7.69792C60.245 6.50333 59.9032 4.76878 58.8526 4.05052C58.4925 3.79815 58.0176 3.65903 57.5587 3.65903ZM27.0208 2.07403C26.6681 2.07403 26.3116 2.11177 25.952 2.19517C25.1056 2.39002 24.3635 2.91344 23.9147 3.63207C23.4313 4.40605 23.3373 5.31016 23.6498 6.17798C24.3142 7.99485 27.0888 8.24183 28.6818 7.96826C30.5266 7.64759 32.7185 6.76575 34.4901 5.63946C34.4726 5.62832 34.4543 5.61753 34.436 5.60675C33.6381 5.07075 32.8288 4.52684 32.0032 4.00738C30.514 3.05221 28.8148 2.07403 27.0208 2.07403Z" fill="#5C0000"/>
<path d="M18.461 13.0418C15.461 13.0418 12.2404 12.1603 10.5283 10.0152C8.25904 11.7001 3.77959 13.0382 0.305167 13.0382C0.136715 13.0382 0 12.9174 0 12.7685C0 12.6197 0.136715 12.4989 0.305167 12.4989C3.69048 12.4989 8.05234 11.1918 10.1971 9.55649C9.84916 9.02156 9.59607 8.4356 9.4443 7.81116C9.11269 6.42604 9.51958 4.48155 10.774 3.62452C11.3868 3.19421 12.271 3.01842 13.0237 3.17983C13.6507 3.31428 14.1386 3.66767 14.3974 4.17563C14.9003 5.16999 14.5768 6.32179 13.4086 7.69792C13.3932 7.71626 11.9056 9.22755 11.0503 9.73443C12.9871 12.1261 17.0145 12.8005 20.2464 12.3918C25.3411 11.7641 29.7888 8.79078 34.09 5.91521L34.8098 5.43096C34.813 5.42844 34.8167 5.4263 34.82 5.42378L34.9347 5.34613C35.0311 5.2807 35.1255 5.21707 35.2252 5.15811C35.9963 4.63972 36.8092 4.09294 37.6421 3.56844C39.5333 2.35516 41.7578 1.10629 44.2028 1.67321C45.2095 1.90472 46.0904 2.52377 46.6197 3.37145C47.1849 4.27629 47.2956 5.33102 46.9322 6.34156C46.1453 8.49204 42.9988 8.80479 41.2024 8.49778C39.2221 8.15375 36.867 7.19534 35.0014 5.97954L34.4737 6.33473C30.0947 9.26207 25.5828 12.2786 20.3319 12.9253C19.7301 13.0019 19.1006 13.0418 18.461 13.0418ZM12.4415 3.65904C11.9829 3.65904 11.5089 3.79779 11.1512 4.04907C10.0974 4.76949 9.75558 6.50406 10.0416 7.69937C10.1804 8.26988 10.4111 8.80515 10.7293 9.29262C11.2704 8.9529 12.7263 7.60482 12.9212 7.37474C13.9445 6.16937 14.2456 5.19515 13.8416 4.39672C13.6117 3.94555 13.1918 3.77119 12.8809 3.70433C12.7389 3.67377 12.5908 3.65904 12.4415 3.65904ZM35.51 5.63984C37.282 6.76613 39.474 7.64795 41.3196 7.96862C42.9109 8.24075 45.6859 7.99486 46.3512 6.17691C46.6633 5.31017 46.5689 4.40606 46.0859 3.63207C45.6371 2.91345 44.8949 2.38966 44.0494 2.19518C41.8608 1.68937 39.7795 2.8642 37.9994 4.00631C37.1718 4.52721 36.3625 5.07112 35.58 5.59705C35.5556 5.61179 35.5328 5.62582 35.51 5.63984Z" fill="#5C0000"/>
<path d="M27.0309 21.4668C26.6265 21.4668 26.2147 21.4229 25.7968 21.3262C24.7902 21.0943 23.9089 20.4753 23.3799 19.6276C22.8147 18.7228 22.7041 17.668 23.0674 16.6579C23.8543 14.507 27.0004 14.1939 28.7972 14.5013C30.7776 14.8453 33.1326 15.8041 34.9982 17.0195L35.526 16.6643C39.9061 13.7363 44.4173 10.7205 49.6678 10.0738C53.0971 9.63842 57.3942 10.3815 59.4718 12.9838C61.741 11.2985 66.2205 9.96088 69.6949 9.96088C69.8634 9.96088 70.0001 10.0817 70.0001 10.2305C70.0001 10.3793 69.8634 10.5001 69.6949 10.5001C66.3096 10.5001 61.9477 11.8072 59.803 13.4426C60.1509 13.9775 60.404 14.5635 60.5558 15.1879C60.887 16.573 60.4797 18.5172 59.226 19.3745C58.6133 19.8052 57.7287 19.9806 56.9764 19.8192C56.3493 19.6848 55.8615 19.3314 55.6027 18.8238C55.0998 17.8298 55.4233 16.678 56.5914 15.3018C56.6069 15.2835 58.0945 13.7722 58.9498 13.2653C57.013 10.8729 52.9831 10.1996 49.7537 10.608C44.6598 11.2356 40.2125 14.2083 35.9117 17.0835L35.1903 17.5688C35.187 17.5713 35.1834 17.5735 35.1801 17.5756L35.0654 17.6533C34.9689 17.7187 34.8745 17.7823 34.7748 17.8413C34.0038 18.3597 33.1908 18.9061 32.3579 19.431C30.7894 20.4368 28.9921 21.4668 27.0309 21.4668ZM27.5196 14.9377C25.9909 14.9377 24.1709 15.396 23.6489 16.8229C23.3368 17.6892 23.4312 18.5933 23.9142 19.3677C24.363 20.0863 25.1051 20.6101 25.9511 20.8046C28.1352 21.3108 30.2201 20.1356 32.0007 18.9935C32.8283 18.4722 33.6376 17.9283 34.42 17.4024C34.4445 17.3876 34.4672 17.3736 34.49 17.3596C32.718 16.2333 30.5261 15.3515 28.6805 15.0308C28.3379 14.9722 27.9399 14.9377 27.5196 14.9377ZM59.2712 13.7075C58.7301 14.0472 57.2742 15.3953 57.0793 15.625C56.056 16.8304 55.7553 17.8046 56.1589 18.6031C56.3888 19.0542 56.8087 19.2286 57.1196 19.2954C57.6953 19.4191 58.3748 19.2836 58.8489 18.9507C59.9027 18.2303 60.2445 16.4957 59.9589 15.3008C59.8205 14.7299 59.5898 14.195 59.2712 13.7075Z" fill="#5C0000"/>
<path d="M42.9696 21.4672C41.008 21.4672 39.2108 20.4369 37.641 19.43C36.8097 18.9066 35.9967 18.3601 35.2102 17.8317C35.126 17.7828 35.032 17.7191 34.9352 17.6537L34.8209 17.5764C34.8172 17.5739 34.8131 17.5714 34.8095 17.5689L34.1047 17.0944C29.7884 14.2091 25.3411 11.2364 20.2481 10.6088C17.0154 10.2 12.9876 10.8733 11.0512 13.2658C11.9065 13.7726 13.3941 15.284 13.4099 15.3023C14.5777 16.6784 14.9012 17.8302 14.3987 18.8235C14.1395 19.3318 13.6516 19.6852 13.0246 19.8197C12.2715 19.9807 11.3877 19.8053 10.7717 19.3728C9.52089 18.5179 9.11358 16.5735 9.44479 15.1891C9.59616 14.5639 9.84924 13.9779 10.1975 13.443C8.05323 11.8077 3.69138 10.5006 0.305655 10.5006C0.137203 10.5006 0.000488281 10.3798 0.000488281 10.2309C0.000488281 10.0821 0.137203 9.96133 0.305655 9.96133C3.78008 9.96133 8.25952 11.2994 10.5287 12.9843C12.6055 10.3819 16.9015 9.63851 20.334 10.0746C25.5828 10.7209 30.0944 13.7371 34.4579 16.6536L35.0023 17.0199C36.8679 15.8045 39.223 14.8457 41.2025 14.5021C43.0018 14.1943 46.1462 14.5078 46.9327 16.6572C47.2969 17.6685 47.1858 18.7232 46.6206 19.628C46.0917 20.4757 45.2104 21.0948 44.2037 21.3267C43.7854 21.423 43.3737 21.4672 42.9696 21.4672ZM35.5105 17.3597C35.528 17.3708 35.5463 17.3816 35.5646 17.3924C36.3626 17.9284 37.1719 18.4723 37.9974 18.9921C39.7796 20.1357 41.8633 21.3115 44.0487 20.8047C44.895 20.6098 45.6372 20.0864 46.086 19.3678C46.5694 18.5938 46.6634 17.6897 46.3509 16.8219C45.686 15.0046 42.9114 14.7595 41.3189 15.0312C39.474 15.3515 37.2821 16.2334 35.5105 17.3597ZM10.7293 13.7076C10.4112 14.195 10.18 14.7303 10.0417 15.3016C9.75607 16.4958 10.0979 18.2307 11.1484 18.9486C11.6257 19.2837 12.3044 19.4192 12.881 19.2955C13.1922 19.2287 13.6117 19.0547 13.842 18.6024C14.2453 17.8047 13.9446 16.8305 12.9217 15.6251C12.7264 15.3954 11.2705 14.0473 10.7293 13.7076Z" fill="#5C0000"/>
<path d="M41.0578 5.68825C39.403 5.68825 37.784 4.88192 36.368 4.03999C36.3245 4.01411 36.2159 3.94473 36.058 3.84335C35.7776 3.6636 35.3366 3.38103 34.8255 3.06504C34.7437 3.01471 34.6953 2.93203 34.6953 2.84395C34.6953 2.75588 34.7437 2.67356 34.8255 2.62287C35.3362 2.30724 35.7768 2.02503 36.0568 1.84528C36.2155 1.74354 36.3241 1.67382 36.368 1.64794C38.1494 0.589233 40.2518 -0.413402 42.344 0.174007C43.6469 0.540689 44.6246 1.6889 44.6193 2.84503C44.625 3.99864 43.6469 5.14687 42.344 5.51355C41.9148 5.6347 41.4851 5.68825 41.0578 5.68825ZM35.5302 2.84433C35.8928 3.07152 36.2016 3.2696 36.4165 3.40728C36.5654 3.50291 36.6675 3.56832 36.709 3.59313C38.3691 4.57993 40.3157 5.51858 42.1589 5.00055C43.2009 4.70757 44.0135 3.76102 44.009 2.84575C44.0135 1.92833 43.2009 0.981788 42.1589 0.688802C40.3157 0.170055 38.3695 1.10905 36.709 2.09585C36.6675 2.1203 36.565 2.18644 36.4153 2.28242C36.2004 2.41975 35.892 2.61749 35.5302 2.84433Z" fill="#5C0000"/>
<path d="M28.9425 5.6883C28.5152 5.6883 28.0856 5.63474 27.6567 5.51395C26.3539 5.14727 25.3761 3.99905 25.3814 2.84293C25.3757 1.68896 26.3539 0.54111 27.6567 0.174429C29.7481 -0.414059 31.8513 0.589633 33.6327 1.64834C33.6762 1.67422 33.7853 1.74397 33.944 1.8457C34.2239 2.02545 34.6646 2.30764 35.1752 2.62327C35.257 2.67396 35.3054 2.7563 35.3054 2.84437C35.3054 2.93245 35.257 3.01513 35.1752 3.06546C34.6637 3.38145 34.2227 3.66436 33.9427 3.84375C33.7849 3.94513 33.6766 4.01451 33.6327 4.04039C32.2167 4.88196 30.5977 5.6883 28.9425 5.6883ZM28.9384 0.540744C28.571 0.540744 28.2044 0.586404 27.8423 0.688499C26.8002 0.981485 25.9877 1.92801 25.9921 2.84328C25.9877 3.7607 26.8002 4.70724 27.8423 5.00023C29.6846 5.51826 31.6316 4.57999 33.2921 3.59283C33.3336 3.56838 33.4357 3.5026 33.5847 3.40698C33.7991 3.26929 34.1083 3.0712 34.4709 2.844C34.1087 2.61716 33.8003 2.41945 33.5859 2.28177C33.4362 2.18578 33.3336 2.11962 33.2921 2.09518C31.9579 1.30286 30.4394 0.540744 28.9384 0.540744Z" fill="#5C0000"/>
<path d="M41.0582 23C39.403 23 37.784 22.1936 36.368 21.3521C36.3245 21.3262 36.2155 21.2564 36.0568 21.1547C35.7768 20.9749 35.3362 20.6928 34.8255 20.3771C34.7437 20.3264 34.6953 20.2441 34.6953 20.156C34.6953 20.0679 34.7437 19.9853 34.8255 19.9349C35.337 19.6189 35.778 19.336 36.058 19.1566C36.2159 19.0553 36.3241 18.9859 36.368 18.96C38.1494 17.9009 40.2518 16.898 42.344 17.4861C43.6469 17.8528 44.6246 19.001 44.6193 20.1571C44.625 21.3107 43.6469 22.4589 42.344 22.8256C41.9148 22.946 41.4851 23 41.0582 23ZM35.5302 20.1557C35.8924 20.3825 36.2008 20.5802 36.4153 20.7179C36.565 20.8139 36.6675 20.88 36.709 20.9045C38.3691 21.8913 40.3153 22.8296 42.1589 22.3115C43.2009 22.0186 44.0135 21.072 44.009 20.1567C44.0135 19.2393 43.2009 18.2928 42.1589 17.9998C40.3157 17.4807 38.3695 18.42 36.709 19.4068C36.6675 19.4313 36.5654 19.4971 36.4165 19.5927C36.2016 19.7304 35.8924 19.9285 35.5302 20.1557Z" fill="#5C0000"/>
<path d="M28.9421 23C28.5148 23 28.0856 22.9464 27.6567 22.8257C26.3539 22.459 25.3761 21.3108 25.3814 20.1546C25.3757 19.001 26.3539 17.8528 27.6567 17.4861C29.7469 16.8984 31.8509 17.901 33.6327 18.96C33.6762 18.9859 33.7849 19.0553 33.9427 19.1567C34.2231 19.3364 34.6641 19.619 35.1752 19.935C35.257 19.9853 35.3054 20.068 35.3054 20.1561C35.3054 20.2441 35.257 20.3265 35.1752 20.3772C34.6646 20.6928 34.2239 20.9753 33.944 21.1547C33.7853 21.2565 33.6766 21.3262 33.6327 21.3521C32.2167 22.1937 30.5973 23 28.9421 23ZM28.9384 17.8521C28.571 17.8521 28.2044 17.8977 27.8423 17.9998C26.8002 18.2928 25.9877 19.2394 25.9921 20.1546C25.9877 21.0721 26.8002 22.0186 27.8423 22.3119C29.6846 22.83 31.6316 21.8917 33.2921 20.9049C33.3336 20.8804 33.4362 20.8143 33.5859 20.7183C33.8003 20.5806 34.1087 20.3829 34.4709 20.1561C34.1083 19.9289 33.7995 19.7308 33.5847 19.5931C33.4357 19.4975 33.3336 19.4321 33.2921 19.4073C31.9579 18.6142 30.4398 17.8521 28.9384 17.8521Z" fill="#5C0000"/>
</svg>
