<svg width="18" height="20" viewBox="0 0 18 20" fill="none" xmlns="http://www.w3.org/2000/svg">
<path fill-rule="evenodd" clip-rule="evenodd" d="M2.25 8.36305C2.25 4.59522 5.27723 1.55005 9 1.55005C12.7218 1.55005 15.75 4.59528 15.75 8.36305C15.75 10.7563 14.3198 13.1912 12.6385 15.0841C11.809 16.018 10.9472 16.787 10.2312 17.3165C9.87247 17.582 9.56161 17.7789 9.31893 17.9057C9.13527 18.0016 9.03447 18.0338 9.00065 18.0446L8.99987 18.0449L8.99922 18.0446C8.96544 18.0339 8.86446 18.0017 8.68037 17.9056C8.43759 17.7788 8.12668 17.5819 7.76787 17.3165C7.05192 16.787 6.19013 16.018 5.36078 15.0842C3.67978 13.1913 2.25 10.7563 2.25 8.36305ZM9 0.0500488C4.43677 0.0500488 0.75 3.77888 0.75 8.36305C0.75 11.3048 2.47022 14.0883 4.23922 16.0802C5.13487 17.0887 6.07308 17.9287 6.87588 18.5225C7.27645 18.8188 7.65459 19.0621 7.98604 19.2352C8.28115 19.3893 8.65247 19.55 9 19.55C9.34745 19.55 9.7187 19.3892 10.0135 19.2351C10.3448 19.0621 10.7228 18.8187 11.1233 18.5225C11.926 17.9287 12.8642 17.0887 13.76 16.0802C15.5292 14.0884 17.25 11.3048 17.25 8.36305C17.25 3.77881 13.5622 0.0500488 9 0.0500488ZM9 5.05005C8.13805 5.05005 7.3114 5.39246 6.7019 6.00195C6.09241 6.61144 5.75 7.4381 5.75 8.30005C5.75 9.162 6.09241 9.98865 6.7019 10.5981C7.3114 11.2076 8.13805 11.55 9 11.55C9.86195 11.55 10.6886 11.2076 11.2981 10.5981C11.9076 9.98865 12.25 9.162 12.25 8.30005C12.25 7.4381 11.9076 6.61144 11.2981 6.00195C10.6886 5.39246 9.86195 5.05005 9 5.05005ZM7.76256 7.06261C8.09075 6.73442 8.53587 6.55005 9 6.55005C9.46413 6.55005 9.90925 6.73442 10.2374 7.06261C10.5656 7.3908 10.75 7.83592 10.75 8.30005C10.75 8.76418 10.5656 9.2093 10.2374 9.53749C9.90925 9.86567 9.46413 10.05 9 10.05C8.53587 10.05 8.09075 9.86567 7.76256 9.53749C7.43437 9.2093 7.25 8.76418 7.25 8.30005C7.25 7.83592 7.43437 7.3908 7.76256 7.06261Z" fill="#6B0000"/>
</svg>
