<svg width="22" height="22" viewBox="0 0 22 22" fill="none" xmlns="http://www.w3.org/2000/svg">
<path fill-rule="evenodd" clip-rule="evenodd" d="M2.51089 3.71109C2.53591 3.68675 2.58099 3.64291 2.62336 3.5953C3.37592 2.84473 3.91669 2.42309 4.32721 2.2131C4.70911 2.01775 4.92806 2.02879 5.10621 2.08799C5.33979 2.16561 5.62287 2.36665 6.05137 2.78556C6.25862 2.98816 6.48043 3.22142 6.73638 3.49082L6.74243 3.49719L6.74246 3.49722C6.99381 3.76179 7.2734 4.05609 7.58464 4.36734C8.11078 4.89347 8.18179 5.23772 8.17534 5.49034C8.1714 5.64474 8.13616 5.81563 8.06908 6.03354C8.03561 6.1423 7.99693 6.25449 7.95291 6.38059L7.93947 6.41903C7.9002 6.53138 7.85707 6.65477 7.81632 6.78086C7.62977 7.35809 7.46166 8.0818 7.67794 8.96368C7.89027 9.82949 8.44802 10.7497 9.50065 11.8023L9.50078 11.8025C10.5539 12.855 11.4743 13.4127 12.3401 13.6249C13.2221 13.841 13.9457 13.6727 14.5228 13.4858C14.649 13.4449 14.7725 13.4016 14.885 13.3622L14.9229 13.349C15.049 13.3049 15.1611 13.2661 15.2698 13.2326C15.4876 13.1653 15.6584 13.13 15.8126 13.1259C16.0649 13.1193 16.4088 13.1899 16.9348 13.7154C17.2426 14.0232 17.5339 14.3002 17.796 14.5494L17.8109 14.5636C18.0801 14.8196 18.3132 15.0416 18.5155 15.249C18.9337 15.6777 19.1345 15.9614 19.212 16.1955C19.2712 16.3745 19.2819 16.594 19.0869 16.9754C18.8772 17.3854 18.4566 17.925 17.7079 18.6754C17.6601 18.7178 17.6162 18.763 17.5918 18.7881L17.5917 18.7881L17.5842 18.7959L17.58 18.8001C17.5387 18.8425 17.4985 18.8836 17.4508 18.9289C17.3545 19.0205 17.2331 19.1234 17.0784 19.219C16.7793 19.4039 16.3153 19.587 15.6048 19.544C14.1385 19.4553 11.5198 18.3942 7.21427 14.0896C2.90881 9.78468 1.84625 7.1653 1.75671 5.69831C1.71331 4.98737 1.8961 4.52317 2.08072 4.22399C2.17617 4.06931 2.27894 3.94802 2.37034 3.8518C2.41584 3.80391 2.45721 3.7635 2.49967 3.72202L2.49969 3.722L2.50308 3.7187L2.51088 3.7111L2.51089 3.71109ZM16.9348 13.7154L16.9349 13.7155L17.465 13.185L16.9348 13.7154ZM7.82548 2.45938L7.82544 2.45935L7.82386 2.45768L7.82127 2.45496C7.57101 2.19154 7.33004 1.93789 7.09995 1.71295C6.65221 1.27524 6.16116 0.857903 5.57924 0.664526C4.94189 0.452726 4.30397 0.540137 3.64411 0.877666C3.01635 1.19878 2.33615 1.76117 1.54365 2.55368C1.52854 2.56878 1.51409 2.58452 1.50033 2.60086C1.49988 2.60123 1.49807 2.60304 1.49443 2.60667C1.48795 2.61314 1.47567 2.62541 1.45493 2.64567L1.44827 2.65218L1.44826 2.65218C1.40705 2.69242 1.34811 2.74997 1.28284 2.81868C1.14307 2.96581 0.969082 3.16907 0.804198 3.43628C0.468161 3.98084 0.196012 4.74964 0.259493 5.7897C0.383704 7.82472 1.78214 10.7793 6.15368 15.1504L6.15371 15.1504C10.5252 19.5209 13.4795 20.9182 15.5142 21.0413C16.5541 21.1042 17.3227 20.8314 17.867 20.495C18.1341 20.33 18.3372 20.1559 18.4843 20.0161C18.5526 19.9512 18.6099 19.8925 18.65 19.8514L18.6571 19.8442C18.6774 19.8234 18.6896 19.8112 18.696 19.8047C18.6995 19.8013 18.7013 19.7995 18.7017 19.799C18.7181 19.7852 18.734 19.7706 18.7492 19.7554C19.5401 18.9648 20.1016 18.2857 20.4224 17.6583C20.7596 16.9989 20.847 16.3613 20.636 15.724C20.4432 15.1419 20.0268 14.6502 19.5892 14.2016C19.3636 13.9703 19.1091 13.7282 18.8446 13.4767L18.834 13.4666C18.5695 13.2151 18.2898 12.949 17.9952 12.6546L17.9951 12.6545C17.2511 11.9111 16.5296 11.6066 15.7732 11.6265C15.4232 11.6356 15.1039 11.714 14.8275 11.7993C14.6891 11.842 14.553 11.8892 14.4275 11.9331L14.3901 11.9462L14.39 11.9463C14.2753 11.9864 14.1689 12.0237 14.0607 12.0587C13.5955 12.2094 13.1862 12.2879 12.6971 12.168C12.1919 12.0442 11.5031 11.683 10.5612 10.7415C9.6199 9.80024 9.25867 9.11163 9.13476 8.6064C9.01479 8.11721 9.09318 7.70767 9.24363 7.24215C9.27859 7.13398 9.31574 7.02766 9.35578 6.91307L9.36907 6.87503C9.41292 6.74945 9.46008 6.61332 9.50271 6.47481C9.58785 6.19818 9.66592 5.87874 9.67486 5.52861C9.69416 4.77217 9.38917 4.05055 8.64531 3.30668C8.3477 3.00907 8.07921 2.72646 7.82548 2.45938ZM12.6066 1.21717C12.6523 0.805494 13.0231 0.508847 13.4348 0.554595C15.401 0.773088 17.2345 1.65368 18.6342 3.05177C20.0339 4.44987 20.9166 6.28235 21.1373 8.24833C21.1835 8.65995 20.8873 9.03111 20.4757 9.07732C20.064 9.12354 19.6929 8.82731 19.6467 8.41569C19.4639 6.7879 18.7331 5.27063 17.5741 4.11304C16.4152 2.95544 14.8971 2.22633 13.2691 2.04542C12.8575 1.99967 12.5608 1.62885 12.6066 1.21717ZM12.6158 4.69988C12.6948 4.29328 13.0885 4.02774 13.4951 4.10679C14.5075 4.30361 15.438 4.7984 16.1673 5.52768C16.8966 6.25696 17.3914 7.18748 17.5882 8.19988C17.6672 8.60648 17.4017 9.00017 16.9951 9.07922C16.5885 9.15827 16.1948 8.89274 16.1158 8.48614C15.976 7.76713 15.6246 7.10627 15.1066 6.58834C14.5887 6.0704 13.9279 5.71901 13.2088 5.57922C12.8022 5.50017 12.5367 5.10648 12.6158 4.69988Z" fill="#6B0000"/>
</svg>
