<svg width="9" height="6" viewBox="0 0 9 6" fill="none" xmlns="http://www.w3.org/2000/svg">
<g clip-path="url(#clip0_1159_2321)">
<path d="M7.5121 2.77501C1.4801 -2.81699 0.600098 2.77501 0.600098 2.77501C1.8281 8.43301 7.5121 2.77501 7.5121 2.77501ZM2.2151 2.51001C2.2601 2.51001 2.3051 2.52601 2.3431 2.55601C2.3811 2.58601 2.4101 2.62901 2.4271 2.67901C2.44428 2.72983 2.44841 2.78417 2.4391 2.83701C2.43077 2.88859 2.40865 2.93696 2.3751 2.97701C2.34415 3.0138 2.302 3.03944 2.2551 3.05001C2.21023 3.05921 2.16355 3.05249 2.1231 3.03101C2.07952 3.0077 2.04398 2.97181 2.0211 2.92801C1.99312 2.8756 1.98079 2.81626 1.98558 2.75704C1.99037 2.69783 2.01207 2.64124 2.0481 2.59401C2.0881 2.54401 2.1411 2.51401 2.1981 2.51001H2.2151ZM2.8591 2.77501C5.6291 1.11501 6.0151 2.77501 6.0151 2.77501C5.4441 4.49501 2.8591 2.77501 2.8591 2.77501Z" fill="#5C0000"/>
<path d="M7.96015 3.539C8.04375 3.54056 8.12657 3.52277 8.20215 3.487C8.2809 3.44987 8.35106 3.39674 8.40815 3.331C8.46906 3.26058 8.51652 3.17957 8.54815 3.092C8.61599 2.90708 8.61846 2.70451 8.55515 2.518C8.52503 2.42826 8.47859 2.34485 8.41815 2.272C8.36155 2.20302 8.29101 2.14679 8.21115 2.107C8.13497 2.06946 8.05107 2.05029 7.96615 2.051C7.88269 2.04863 7.79983 2.06575 7.72415 2.101C7.64483 2.13813 7.57429 2.19163 7.51715 2.258C7.456 2.32862 7.40852 2.41001 7.37715 2.498C7.34452 2.58915 7.32762 2.68518 7.32715 2.782C7.32815 2.88 7.34515 2.976 7.37715 3.066C7.40915 3.156 7.45715 3.237 7.51515 3.306C7.57171 3.37265 7.64152 3.42679 7.72015 3.465C7.79496 3.50112 7.87707 3.5196 7.96015 3.519V3.539Z" fill="#5C0000"/>
</g>
<defs>
<clipPath id="clip0_1159_2321">
<rect width="8" height="6" fill="white" transform="translate(0.600098 -0.209991)"/>
</clipPath>
</defs>
</svg>
